<svg width="81" height="81" viewBox="0 0 81 81" fill="none" xmlns="http://www.w3.org/2000/svg">
<path d="M80.9449 73.4184C80.7984 72.6203 80.3745 71.933 79.75 71.4804C78.419 70.5157 77.3122 69.5406 76.4514 68.572C77.4675 67.4568 78.2411 66.1001 78.7121 64.5938C79.5319 61.9599 79.3601 59.1367 78.2263 56.6449C76.5962 53.0624 73.308 50.8357 69.6483 50.8357C68.4927 50.8357 67.3519 51.0619 66.2573 51.5097C65.9546 51.6338 65.659 51.7729 65.3833 51.9225C64.8007 52.234 64.2521 52.6089 63.7419 53.0397L52.7663 35.7634L52.5352 33.5196C52.5299 33.4751 52.523 33.4297 52.5134 33.3861L45.6528 2.48995C45.4068 1.04521 44.2538 0 42.8975 0C42.737 0 42.5766 0.0151478 42.4178 0.0454438C40.9037 0.329468 39.8798 1.88876 40.124 3.53232L41.721 18.3792L33.9018 6.07434C33.3846 5.17966 32.4985 4.64569 31.5216 4.64569C31.0053 4.64569 30.4994 4.80001 30.059 5.09351C29.4196 5.5186 28.9705 6.187 28.796 6.97848C28.6233 7.75576 28.735 8.5605 29.1109 9.24689L42.7196 37.3871C42.7388 37.4269 42.7606 37.4657 42.7841 37.5026L43.9738 39.3554L46.2136 60.199C45.5682 60.2397 44.9271 60.3514 44.3052 60.5332C43.9982 60.6212 43.6912 60.7282 43.3929 60.8513C38.7616 62.742 36.2349 68.0845 37.5135 73.2764C38.1755 75.9614 39.7603 78.2071 41.9774 79.5998C43.4365 80.5153 45.0902 81 46.7604 81C46.8712 81 46.982 80.9981 47.0927 80.9934C47.0997 80.9934 47.1067 80.9934 47.1128 80.9934C47.35 80.9934 48.3138 80.8807 49.2898 80.6014C49.8593 80.4386 50.3163 80.2549 50.5989 80.129C50.7646 80.0561 50.9443 79.9766 51.1074 79.8724L51.1092 79.8753C55.1151 77.6873 57.1569 72.8674 56.092 68.1318L54.8822 56.34L61.1314 66.0726C62.7921 69.5264 66.034 71.6698 69.6091 71.6698C70.1935 71.6698 70.7787 71.6101 71.3543 71.4937C72.6399 73.2395 74.4131 74.937 76.6345 76.5465C77.0977 76.8816 77.6349 77.0596 78.1905 77.0596C79.1316 77.0596 80.0047 76.5531 80.5271 75.7039C80.9431 75.0289 81.0914 74.2156 80.9449 73.4184ZM49.6648 78.8177C49.67 78.7524 49.6805 78.689 49.6945 78.6284C49.6796 78.6899 49.67 78.7524 49.6648 78.8177ZM49.9352 78.1579C49.998 78.085 50.0678 78.0234 50.1384 77.9799C50.0634 78.03 49.9954 78.0897 49.9352 78.1579ZM78.863 74.4996C78.713 74.7439 78.4618 74.8897 78.1905 74.8897C78.0318 74.8897 77.8783 74.8386 77.744 74.7429C75.478 73.1003 73.7371 71.3858 72.5684 69.6466C72.3268 69.2859 71.9064 69.123 71.5096 69.2348C70.8868 69.4109 70.2475 69.4989 69.6082 69.4989C66.764 69.4989 64.185 67.7815 62.8784 65.0151C62.8584 64.9715 62.8348 64.9299 62.8087 64.8901L54.2726 51.5949C54.0109 51.1869 53.5277 51.0241 53.0995 51.1992C52.6721 51.3743 52.4078 51.842 52.4584 52.3353L54.113 68.4414C54.1182 68.4906 54.126 68.5389 54.1365 68.5853C55.0087 72.3515 53.3943 76.1953 50.2108 77.9344C50.1916 77.9448 50.1733 77.9553 50.1559 77.9666C50.0721 78.0111 49.5645 78.2762 48.7813 78.4996C48.0112 78.7193 47.2855 78.8054 47.1154 78.8187C47.098 78.8187 47.0797 78.8187 47.0613 78.8196C45.6423 78.8793 44.2206 78.4987 42.9786 77.7186C41.2229 76.6166 39.9687 74.8395 39.4445 72.7141C38.4328 68.6042 40.4327 64.376 44.0985 62.8792C44.3349 62.7817 44.5756 62.6984 44.8181 62.6283C45.453 62.4437 46.108 62.35 46.7648 62.35C46.9314 62.35 47.1023 62.3557 47.2698 62.3689C47.5655 62.3898 47.8559 62.2676 48.0609 62.0338C48.265 61.7999 48.3644 61.4799 48.3304 61.159L45.9327 38.8328C45.9135 38.6548 45.8534 38.4844 45.76 38.3386L44.4622 36.3173L30.8692 8.2102C30.8588 8.18937 30.8483 8.16854 30.8361 8.14866C30.7244 7.9489 30.6904 7.71411 30.741 7.48783C30.7916 7.26061 30.9198 7.06842 31.1038 6.94629C31.2312 6.86203 31.376 6.81659 31.5225 6.81659C31.8068 6.81659 32.0641 6.97375 32.2124 7.23505C32.222 7.25209 32.2316 7.26913 32.242 7.28523L42.3568 23.202C42.6176 23.6129 43.1016 23.7766 43.5325 23.6015C43.9616 23.4254 44.2267 22.9549 44.1727 22.4607L42.1082 3.25397C42.1065 3.23409 42.1038 3.21421 42.1004 3.19433C42.0245 2.71906 42.3201 2.26557 42.758 2.1832C43.1984 2.10083 43.6145 2.42652 43.6895 2.8961C43.693 2.91977 43.6973 2.94344 43.7026 2.96616L50.5553 33.8283L50.8074 36.2756C50.8257 36.4536 50.8841 36.6231 50.9775 36.7708L62.7345 55.2759C62.9028 55.541 63.1715 55.7114 63.4672 55.7408C63.7637 55.7692 64.055 55.6546 64.2643 55.4274C64.8531 54.7893 65.5264 54.2638 66.2695 53.8662C66.4893 53.7479 66.723 53.638 66.9629 53.5386C67.8298 53.1845 68.7325 53.0056 69.6475 53.0056C72.5414 53.0056 75.1422 54.7675 76.4331 57.6049C77.3297 59.577 77.4666 61.8113 76.816 63.896C76.3537 65.3758 75.5234 66.6738 74.414 67.6471C74.2073 67.8288 74.0747 68.0939 74.0476 68.3808C74.0215 68.6686 74.1017 68.9555 74.2709 69.1798C75.321 70.5659 76.7907 71.9481 78.6388 73.2859C78.8185 73.4165 78.9406 73.6144 78.9833 73.8435C79.0261 74.0726 78.9833 74.3055 78.863 74.4996Z" fill="#19317C"/>
<path d="M46.778 65.1797C46.3463 65.1797 45.9137 65.2412 45.4916 65.3643C45.3276 65.4126 45.1662 65.4675 45.018 65.53C42.6142 66.5118 41.3016 69.2867 41.9662 71.984C42.3107 73.3795 43.1341 74.5459 44.2845 75.2692C45.0441 75.7454 45.9032 75.9972 46.7728 75.9972C47.2072 75.9972 47.6415 75.9357 48.0689 75.8117C48.2381 75.7615 48.3933 75.7075 48.539 75.6469C50.9436 74.6642 52.2554 71.8893 51.5908 69.192C51.0099 66.8308 49.0309 65.1797 46.778 65.1797ZM47.8325 73.6162C47.7462 73.6512 47.6502 73.6853 47.5491 73.7146C46.7859 73.9362 45.9695 73.8178 45.2857 73.3889C44.5976 72.9563 44.1048 72.2585 43.8981 71.4225C43.5004 69.8083 44.2853 68.1477 45.7262 67.5589C45.816 67.5219 45.9111 67.4888 46.0097 67.4604C46.2617 67.3875 46.5199 67.3506 46.778 67.3506C48.1264 67.3506 49.3109 68.338 49.6597 69.7525C50.0575 71.3667 49.2734 73.0273 47.8325 73.6162Z" fill="#19317C"/>
<path d="M74.0966 58.8591C73.2497 56.9968 71.5419 55.8408 69.6406 55.8408C69.0405 55.8408 68.4483 55.9582 67.884 56.1892C67.7235 56.2536 67.5683 56.3274 67.4244 56.4051C64.9622 57.7267 63.9478 60.975 65.1636 63.6468C66.0114 65.509 67.7183 66.665 69.6196 66.665C70.2197 66.665 70.811 66.5476 71.3771 66.3166C71.5323 66.2541 71.6867 66.1803 71.835 66.0998C73.0273 65.4607 73.9204 64.3559 74.3478 62.9878C74.7743 61.6198 74.6844 60.1533 74.0966 58.8591ZM72.4542 62.291C72.1978 63.11 71.664 63.7717 70.9489 64.1552C70.8581 64.2034 70.7666 64.247 70.6741 64.2849C70.3331 64.424 69.9781 64.495 69.6196 64.495C68.4841 64.495 67.4636 63.803 66.956 62.6868C66.2286 61.0877 66.8348 59.1421 68.3131 58.3497C68.3977 58.3043 68.4884 58.2617 68.5861 58.2219C68.9271 58.0827 69.2821 58.0117 69.6406 58.0117C70.7762 58.0117 71.7966 58.7038 72.3042 59.82C72.6557 60.5944 72.7098 61.4721 72.4542 62.291Z" fill="#19317C"/>
<path d="M22.6184 4.27688C23.1705 4.27688 23.6179 3.7912 23.6179 3.19191C23.6179 2.59262 23.1696 2.10693 22.6184 2.10693H3.70156C1.66064 2.10693 0 3.9086 0 6.12493V76.9606C0 79.176 1.66064 80.9777 3.70156 80.9777H4.37052C6.39661 80.9777 8.04591 79.1883 8.04591 76.9891V39.6777H22.6193C23.1714 39.6777 23.6188 39.1911 23.6188 38.5927C23.6188 37.9944 23.1705 37.5077 22.6193 37.5077H8.04504V33.7785H22.6184C23.1705 33.7785 23.6179 33.2928 23.6179 32.6935C23.6179 32.0942 23.1696 31.6086 22.6184 31.6086H8.04504V27.8784H22.6184C23.1705 27.8784 23.6179 27.3927 23.6179 26.7934C23.6179 26.1932 23.1696 25.7084 22.6184 25.7084H8.04504V21.9792H22.6184C23.1705 21.9792 23.6179 21.4935 23.6179 20.8942C23.6179 20.2949 23.1696 19.8092 22.6184 19.8092H8.04504V16.08H22.6184C23.1705 16.08 23.6179 15.5934 23.6179 14.995C23.6179 14.3967 23.1696 13.91 22.6184 13.91H8.04504V10.1808H22.6184C23.1705 10.1808 23.6179 9.69512 23.6179 9.09583C23.6179 8.49654 23.1696 8.01086 22.6184 8.01086H8.04504V4.28067H22.6184V4.27688ZM6.04512 76.99C6.04512 77.9926 5.29417 78.8087 4.36965 78.8087H3.70156C2.76308 78.8087 1.99992 77.9803 1.99992 76.9616V6.12588C1.99992 5.10718 2.76308 4.27783 3.70156 4.27783H6.04599V76.99H6.04512Z" fill="#19317C"/>
</svg>
