<svg width="221" height="41" viewBox="0 0 221 41" fill="none" xmlns="http://www.w3.org/2000/svg">
<g clip-path="url(#clip0_103_4391)">
<path d="M63.4634 7.1871C62.806 4.79543 61.7578 2.37415 58.253 2.37415C55.4688 2.37415 54.3832 4.34671 54.3832 6.26687C54.3832 8.69043 55.9835 9.95232 59.1233 11.5263C63.5289 13.7266 65.5831 15.4418 65.5831 18.9313C65.5831 22.8423 62.1298 25.7988 57.2048 25.7988C54.9307 25.7988 52.9513 25.1793 51.3767 24.6098C51.0913 23.6213 50.607 20.9084 50.3449 18.986L51.5592 18.6876C52.3079 21.1043 54.0346 24.4185 57.888 24.4185C60.5084 24.4185 62.1087 22.676 62.1087 20.3117C62.1087 17.6307 60.6067 16.4804 57.3405 14.7516C53.4169 12.6811 51.1474 10.9181 51.1474 7.45587C51.1474 3.99365 53.9714 1.05304 59.0344 1.05304C61.2173 1.05304 63.2575 1.59971 64.0507 1.73865C64.2004 3.05748 64.3712 4.59498 64.6707 6.95021L63.4634 7.18937V7.1871Z" fill="#212121"/>
<path d="M88.4159 19.3837C88.1983 20.3381 87.1806 24.1716 86.8133 25.2512H68.3978V24.1784C71.8651 23.9096 72.1202 23.609 72.1202 20.6069V6.29558C72.1202 3.07936 71.7014 2.8903 68.9406 2.64203V1.56236H80.5242C84.118 1.56236 85.5498 1.52592 86.0131 1.48947C86.0505 2.35503 86.2073 5.13392 86.357 7.12469L85.1732 7.30692C84.8362 6.0678 84.4151 5.17036 83.9636 4.42553C83.3506 3.30714 82.5574 3.05886 80.3722 3.05886H77.0171C75.8098 3.05886 75.7209 3.16136 75.7209 4.25242V12.2292H79.7896C82.4685 12.2292 82.6908 11.6825 83.1587 9.1838H84.373V16.803H83.1587C82.651 14.1653 82.3515 13.7872 79.7522 13.7872H75.7209V20.862C75.7209 23.4062 76.4088 23.7229 78.3624 23.7593H81.6964C83.9472 23.7593 84.3543 23.445 85.1778 22.4906C85.9289 21.6729 86.708 20.2037 87.2461 19.0853L88.4159 19.3837Z" fill="#212121"/>
<path d="M113.387 25.5306C112.947 25.5306 112.529 25.501 112.049 25.4645C108.951 25.2755 107.505 24.5306 105.954 22.4032C104.548 20.5172 103.249 18.2349 102.037 16.317C101.322 15.1826 100.828 14.964 99.0474 14.964L97.8378 14.9571V20.606C97.8378 23.6765 98.2425 23.8724 101.205 24.1707V25.2504H90.9474V24.1707C94.0077 23.8496 94.2838 23.6765 94.2838 20.606V6.16947C94.2838 3.11041 93.879 2.94869 90.9474 2.64119V1.56152H100.73C103.57 1.56152 105.418 1.89636 106.862 2.82569C108.39 3.78008 109.4 5.41325 109.4 7.64319C109.4 10.7979 107.313 12.7204 104.597 13.8456C105.25 14.9685 106.834 17.3966 107.957 19.0435C109.328 20.9887 110.06 21.9135 110.893 22.8041C111.878 23.8405 112.657 24.2231 113.558 24.4669L113.387 25.526V25.5306ZM99.4919 13.6725C101.378 13.6725 102.613 13.3877 103.528 12.6361C104.948 11.586 105.533 10.1419 105.533 8.19213C105.533 4.29941 102.943 2.88491 100.201 2.88491C99.1293 2.88491 98.5186 3.03069 98.2636 3.24936C97.9407 3.49763 97.8354 3.87575 97.8354 4.78458V13.6747H99.4919V13.6725Z" fill="#212121"/>
<path d="M137.425 2.64093C134.924 2.95526 134.266 3.28326 132.905 6.59743C131.866 9.07565 126.936 20.7128 124.933 25.6533H123.551C121.55 20.3302 118.034 11.0869 116.003 5.96876C114.934 3.26504 114.325 2.86187 112.014 2.6432V1.56354H121.866L121.859 2.6432C119.096 2.94843 118.972 3.35159 119.51 4.7342C120.486 7.46754 123.232 14.7655 125.397 20.3028C127.428 15.5104 129.819 9.74532 131.417 5.5542C132.261 3.36754 131.845 3.00082 128.761 2.6432V1.56354H137.425V2.6432V2.64093Z" fill="#212121"/>
<path d="M138.936 25.2527V24.173C141.966 23.8587 142.273 23.6992 142.273 20.6083V6.24236C142.273 3.1218 141.959 2.94869 138.936 2.64119V1.56152H149.245V2.64119C146.192 2.95552 145.878 3.1218 145.878 6.24236V20.606C145.878 23.7197 146.185 23.8496 149.245 24.1707V25.2504H138.936V25.2527Z" fill="#212121"/>
<path d="M165.51 7.1871C164.853 4.79543 163.805 2.37415 160.3 2.37415C157.516 2.37415 156.43 4.34671 156.43 6.26687C156.43 8.69043 158.03 9.95232 161.17 11.5263C165.576 13.7266 167.63 15.4418 167.63 18.9313C167.63 22.8423 164.177 25.7988 159.252 25.7988C156.98 25.7988 154.998 25.1793 153.424 24.6098C153.138 23.6213 152.654 20.9084 152.392 18.986L153.606 18.6876C154.355 21.1043 156.084 24.4185 159.935 24.4185C162.555 24.4185 164.156 22.676 164.156 20.3117C164.156 17.6307 162.653 16.4804 159.387 14.7516C155.464 12.6811 153.194 10.9181 153.194 7.45587C153.194 3.99365 156.018 1.05304 161.081 1.05304C163.266 1.05304 165.304 1.59971 166.097 1.73865C166.247 3.05748 166.418 4.59498 166.717 6.95021L165.51 7.18937V7.1871Z" fill="#212121"/>
<path d="M194.003 19.3413C193.479 21.1043 192.505 23.7534 191.937 24.9105C190.872 25.1292 187.924 25.7988 185.079 25.7988C175.929 25.7988 171.437 19.913 171.437 13.64C171.437 6.18487 177.26 1.05304 185.753 1.05304C188.979 1.05304 191.647 1.72954 192.828 1.8981C192.985 3.55176 193.247 5.82954 193.539 7.61304L192.318 7.86815C191.562 5.35348 190.624 3.8866 188.701 3.12126C187.742 2.6976 186.24 2.46071 184.892 2.46071C178.849 2.46071 175.688 6.9001 175.688 12.861C175.688 19.8288 179.391 24.3479 185.287 24.3479C188.984 24.3479 190.896 22.6555 192.826 18.945L194.003 19.3413Z" fill="#1A317C"/>
<path d="M211.464 25.2521V24.1725C213.883 23.8741 214.128 23.5028 213.604 22.086C213.139 20.7239 212.416 18.9336 211.669 16.7902H203.724C203.158 18.3391 202.603 19.7536 202.107 21.1818C201.291 23.537 201.883 23.8285 204.931 24.1748V25.2544H196.176V24.1748C198.535 23.8832 199.133 23.6144 200.437 20.3731L208.193 1.29221L209.498 1.05304C211.864 7.30554 214.44 14.1207 216.812 20.3868C218.043 23.5962 218.38 23.8809 220.998 24.1725V25.2521H211.461H211.464ZM207.8 6.18715C206.623 9.23026 205.39 12.3895 204.299 15.2277H211.11L207.797 6.18715H207.8Z" fill="#1A317C"/>
<path d="M83.3318 32.8121L82.0544 39.8482H80.8799L81.7853 34.837L78.8724 38.8459H78.1097L76.5959 34.8257L75.6998 39.8482H74.5253L75.7911 32.8121H77.0054L78.725 37.3722L82.0403 32.8121H83.3271H83.3318Z" fill="#212121"/>
<path d="M90.5567 38.4359H87.3958L86.6448 39.8504H85.3978L89.3003 32.7939H90.6597L91.998 39.8504H90.8047L90.5567 38.4359ZM90.3812 37.4428L89.7846 33.9738L87.9316 37.4428H90.3812Z" fill="#212121"/>
<path d="M97.4236 32.8121L96.1578 39.8482H94.9833L96.2491 32.8121H97.4236ZM98.2355 36.3518L100.47 39.8504H99.1526L96.8878 36.3313L100.315 32.8121H101.675L98.2355 36.3495V36.3518Z" fill="#212121"/>
<path d="M106.08 32.8121L104.815 39.8482H103.64L104.906 32.8121H106.08Z" fill="#212121"/>
<path d="M115.912 32.8121L114.634 39.8482H113.481L110.877 34.6047L109.941 39.8482H108.766L110.032 32.8121H111.207L113.79 38.1057L114.737 32.8121H115.912Z" fill="#212121"/>
<path d="M121.831 35.9395H126.012C126.012 36.0807 125.982 36.2994 125.96 36.4497C125.539 38.8961 124.014 39.9484 122.058 39.9484C120.102 39.9484 118.712 38.6865 118.712 36.7618C118.712 34.427 120.401 32.7119 122.83 32.7119C124.487 32.7119 125.991 33.5342 126.085 35.2379H124.819C124.655 34.2152 123.892 33.7437 122.75 33.7437C121.113 33.7437 119.941 34.9259 119.941 36.7117C119.941 38.0442 120.764 38.9279 122.163 38.9279C123.265 38.9279 124.295 38.3175 124.646 36.8734H121.67L121.833 35.9418L121.831 35.9395Z" fill="#212121"/>
<path d="M134.369 38.8478H137.294L137.109 39.8501H133.022L134.287 32.814H135.462L134.372 38.8478H134.369Z" fill="#1A317C"/>
<path d="M142.874 32.8121L141.608 39.8482H140.434L141.699 32.8121H142.874Z" fill="#1A317C"/>
<path d="M151.088 32.8121L150.904 33.8143H147.815L147.446 35.8985H150.113L149.928 36.9007H147.261L146.737 39.8482H145.562L146.828 32.8121H151.091H151.088Z" fill="#1A317C"/>
<path d="M155.473 33.8139L155.134 35.7592H157.862L157.677 36.7523H154.949L154.579 38.8478H157.607L157.422 39.8501H153.211L154.488 32.814H158.699L158.515 33.8162H155.478L155.473 33.8139Z" fill="#1A317C"/>
<path d="M167.569 33.8139L167.23 35.7592H169.958L169.773 36.7523H167.045L166.675 38.8478H169.703L169.518 39.8501H165.307L166.584 32.814H170.795L170.611 33.8162H167.574L167.569 33.8139Z" fill="#212121"/>
<path d="M177.648 38.4359H174.487L173.736 39.8504H172.489L176.392 32.7939H177.751L179.09 39.8504H177.894L177.646 38.4359H177.648ZM177.473 37.4428L176.876 33.9738L175.023 37.4428H177.473Z" fill="#212121"/>
<path d="M187.48 37.6749C187.48 39.078 186.42 39.9504 184.567 39.9504C182.929 39.9504 181.724 39.1281 181.963 37.454H183.189C183.013 38.5268 183.643 38.9983 184.702 38.9983C185.671 38.9983 186.237 38.5883 186.237 37.8867C186.237 36.1716 182.665 37.1146 182.665 34.789C182.665 33.5772 183.612 32.7139 185.332 32.7139C187.051 32.7139 188.008 33.625 187.793 35.1306H186.567C186.712 34.1785 186.228 33.666 185.229 33.666C184.375 33.666 183.881 34.0168 183.881 34.6181C183.881 36.1123 187.484 35.2605 187.484 37.6749H187.48Z" fill="#212121"/>
<path d="M196.817 32.8121L193.563 37.2629L193.09 39.8481H191.916L192.388 37.231L190.648 32.8098H191.904L193.16 36.108L195.528 32.8098H196.815L196.817 32.8121Z" fill="#212121"/>
<path d="M34.8454 9.03408C34.5178 8.98169 34.1739 8.93841 33.8089 8.90652C33.968 7.07291 33.5515 5.37596 32.48 4.0298C29.3706 0.123409 21.9328 0.663242 15.8707 5.23474C9.80629 9.80624 7.41048 16.6806 10.5199 20.5892C10.555 20.6325 10.5877 20.6735 10.6228 20.7145C10.934 21.0881 11.2896 21.4161 11.678 21.7054C12.4361 22.268 13.3322 22.6711 14.3195 22.9149C14.9091 23.0606 15.5338 23.1495 16.1819 23.1859C19.5346 23.3659 23.5705 22.0721 27.1315 19.3866C27.183 19.3479 27.2321 19.3114 27.2836 19.2681C27.6462 19.3091 27.9948 19.3706 28.3318 19.4526L28.4019 19.4709C29.1904 19.6759 29.8806 19.9925 30.4585 20.423C30.4655 20.4275 30.4702 20.4321 30.4772 20.4366C29.0804 22.1951 27.3702 23.8692 25.3791 25.3726C20.6927 28.9077 15.4238 30.7322 10.8966 30.7572C10.3959 30.7595 9.90456 30.7413 9.42493 30.7003C9.00379 30.6639 8.59201 30.6137 8.19192 30.5409C7.70059 30.4566 7.22564 30.345 6.76707 30.2083C4.80643 29.6297 3.13591 28.5888 1.92864 27.0718C-2.46759 21.5527 0.915568 11.8449 9.47874 5.38735C18.0443 -1.06787 28.5447 -1.83092 32.9339 3.68813C34.1411 5.20513 34.7588 7.03874 34.8454 9.03408Z" fill="#1A317C"/>
<path d="M33.5251 35.6144C24.9596 42.0696 14.4592 42.8326 10.07 37.3136C8.86269 35.7966 8.24268 33.9607 8.15845 31.9654C8.48834 32.0177 8.82759 32.061 9.19492 32.0929C9.03348 33.9288 9.45228 35.6257 10.5238 36.9719C13.6333 40.8806 21.0687 40.3408 27.1331 35.767C33.1975 31.1955 35.5933 24.3211 32.4816 20.4125C32.4488 20.3715 32.4161 20.3305 32.3787 20.2895C32.0651 19.9159 31.7142 19.5834 31.3235 19.2986C30.5654 18.7338 29.6717 18.3329 28.6843 18.0869C28.0947 17.9411 27.47 17.8522 26.8219 17.8135C23.4692 17.6359 19.4356 18.9296 15.877 21.6151C15.8279 21.6539 15.7764 21.6903 15.7273 21.7313C15.3646 21.6926 15.0137 21.6311 14.6768 21.5468C13.8602 21.3464 13.1466 21.0206 12.557 20.5833C12.5477 20.5765 12.5406 20.5719 12.5313 20.5628C13.9304 18.8044 15.6384 17.1302 17.6294 15.6269C22.3158 12.0917 27.5847 10.2672 32.1119 10.2422C32.6126 10.2399 33.1039 10.2581 33.5836 10.2991C34.0047 10.3356 34.4165 10.3857 34.8166 10.4586C35.3079 10.5429 35.7852 10.6522 36.2438 10.7911C38.2044 11.3697 39.8749 12.4106 41.0799 13.9276C45.4691 19.4467 42.0883 29.1546 33.5251 35.6098V35.6144Z" fill="#212121"/>
</g>
<defs>
<clipPath id="clip0_103_4391">
<rect width="221" height="41" fill="white"/>
</clipPath>
</defs>
</svg>
