<svg width="46" height="46" viewBox="0 0 46 46" fill="none" xmlns="http://www.w3.org/2000/svg">
<rect width="46" height="46" rx="23" fill="white"/>
<path d="M31.8497 15.9485C31.6466 15.9166 31.4334 15.8902 31.2071 15.8707C31.3058 14.7527 31.0476 13.718 30.3833 12.8971C28.4558 10.5152 23.845 10.8444 20.0871 13.6319C16.3277 16.4194 14.8425 20.611 16.7701 22.9944C16.7918 23.0207 16.8121 23.0457 16.8339 23.0707C17.0268 23.2985 17.2472 23.4985 17.488 23.6749C17.9579 24.018 18.5134 24.2638 19.1255 24.4124C19.491 24.5013 19.8782 24.5555 20.28 24.5777C22.3584 24.6874 24.8603 23.8985 27.0678 22.261C27.0997 22.2374 27.1301 22.2152 27.162 22.1888C27.3868 22.2138 27.6029 22.2513 27.8118 22.3013L27.8553 22.3124C28.3441 22.4374 28.7719 22.6305 29.1302 22.893C29.1345 22.8957 29.1374 22.8985 29.1418 22.9013C28.2759 23.9735 27.2157 24.9944 25.9814 25.911C23.0763 28.0666 19.8101 29.1791 17.0036 29.1944C16.6932 29.1957 16.3886 29.1846 16.0913 29.1596C15.8302 29.1374 15.5749 29.1069 15.3269 29.0624C15.0223 29.011 14.7279 28.943 14.4436 28.8596C13.2282 28.5069 12.1927 27.8721 11.4443 26.9471C8.71899 23.5819 10.8162 17.6624 16.1246 13.7249C21.4345 9.7888 27.9438 9.32352 30.6647 12.6888C31.4131 13.6138 31.796 14.7319 31.8497 15.9485Z" fill="#1A317C"/>
<path d="M31.0312 32.156C25.7213 36.0921 19.212 36.5574 16.4911 33.1921C15.7427 32.2671 15.3584 31.1477 15.3062 29.931C15.5107 29.963 15.721 29.9893 15.9487 30.0088C15.8486 31.1282 16.1082 32.163 16.7725 32.9838C18.7 35.3671 23.3094 35.038 27.0687 32.2491C30.8281 29.4616 32.3133 25.2699 30.3843 22.8866C30.364 22.8616 30.3437 22.8366 30.3205 22.8116C30.1261 22.5838 29.9086 22.381 29.6664 22.2074C29.1964 21.863 28.6424 21.6185 28.0303 21.4685C27.6648 21.3796 27.2776 21.3255 26.8758 21.3018C24.7974 21.1935 22.297 21.9824 20.091 23.6199C20.0605 23.6435 20.0286 23.6657 19.9981 23.6907C19.7733 23.6671 19.5558 23.6296 19.3469 23.5782C18.8407 23.456 18.3984 23.2574 18.0329 22.9907C18.0271 22.9866 18.0227 22.9838 18.0169 22.9782C18.8842 21.906 19.943 20.8852 21.1773 19.9685C24.0824 17.813 27.3487 16.7005 30.1551 16.6852C30.4655 16.6838 30.7701 16.6949 31.0674 16.7199C31.3285 16.7421 31.5838 16.7727 31.8318 16.8171C32.1364 16.8685 32.4322 16.9352 32.7165 17.0199C33.9319 17.3727 34.9675 18.0074 35.7145 18.9324C38.4354 22.2977 36.3396 28.2171 31.0312 32.1532V32.156Z" fill="#212121"/>
</svg>
