<svg width="190" height="178" viewBox="0 0 190 178" fill="none" xmlns="http://www.w3.org/2000/svg">
<rect width="190" height="178" rx="24" fill="white"/>
<path d="M65.9005 86.804C65.8165 86.8787 65.6718 86.944 65.4665 87C65.2705 87.0653 65.0511 87.098 64.8085 87.098C64.5285 87.098 64.2858 87.0607 64.0805 86.986C63.8751 86.902 63.7351 86.7807 63.6605 86.622C63.5205 86.3513 63.3525 85.9873 63.1565 85.53C62.9698 85.0727 62.7645 84.5593 62.5405 83.99C62.3258 83.4113 62.1111 82.8187 61.8965 82.212C61.6818 81.6053 61.4811 81.0127 61.2945 80.434C61.1171 79.846 60.9631 79.3187 60.8325 78.852C60.9258 78.7493 61.0611 78.656 61.2385 78.572C61.4158 78.4787 61.6071 78.432 61.8125 78.432C62.0738 78.432 62.2791 78.4927 62.4285 78.614C62.5778 78.726 62.6898 78.9173 62.7645 79.188C63.1005 80.2613 63.4318 81.2973 63.7585 82.296C64.0851 83.2947 64.4305 84.312 64.7945 85.348H64.8645C65.0885 84.704 65.3171 84.0087 65.5505 83.262C65.7931 82.5153 66.0265 81.7453 66.2505 80.952C66.4838 80.1587 66.6938 79.384 66.8805 78.628C66.9925 78.572 67.1138 78.5253 67.2445 78.488C67.3845 78.4507 67.5338 78.432 67.6925 78.432C67.9445 78.432 68.1545 78.4927 68.3225 78.614C68.4998 78.7353 68.5885 78.922 68.5885 79.174C68.5885 79.342 68.5371 79.622 68.4345 80.014C68.3411 80.3967 68.2105 80.8447 68.0425 81.358C67.8745 81.8713 67.6925 82.4033 67.4965 82.954C67.3005 83.5047 67.0998 84.0413 66.8945 84.564C66.6891 85.0773 66.4978 85.5347 66.3205 85.936C66.1525 86.328 66.0125 86.6173 65.9005 86.804ZM72.391 85.894C72.671 85.894 72.923 85.866 73.147 85.81C73.371 85.754 73.5343 85.6933 73.637 85.628V84.032L72.251 84.172C71.8683 84.2 71.5743 84.284 71.369 84.424C71.173 84.5547 71.075 84.7507 71.075 85.012C71.075 85.2827 71.1823 85.4973 71.397 85.656C71.6117 85.8147 71.943 85.894 72.391 85.894ZM72.321 80.182C73.2357 80.182 73.9637 80.378 74.505 80.77C75.0463 81.1527 75.317 81.7593 75.317 82.59V85.81C75.317 86.034 75.261 86.2113 75.149 86.342C75.0463 86.4727 74.911 86.5893 74.743 86.692C74.4817 86.8413 74.1503 86.9627 73.749 87.056C73.3477 87.1587 72.895 87.21 72.391 87.21C71.4577 87.21 70.725 87.0327 70.193 86.678C69.661 86.314 69.395 85.7773 69.395 85.068C69.395 84.4427 69.591 83.9667 69.983 83.64C70.3843 83.304 70.963 83.0987 71.719 83.024L73.623 82.828V82.576C73.623 82.2027 73.4923 81.932 73.231 81.764C72.979 81.596 72.6197 81.512 72.153 81.512C71.789 81.512 71.4343 81.5587 71.089 81.652C70.7437 81.7453 70.4357 81.8573 70.165 81.988C70.0717 81.9133 69.9877 81.8107 69.913 81.68C69.8383 81.5493 69.801 81.414 69.801 81.274C69.801 80.938 69.9877 80.6907 70.361 80.532C70.6223 80.4107 70.9257 80.322 71.271 80.266C71.6257 80.21 71.9757 80.182 72.321 80.182ZM82.2118 85.124C82.2118 85.7773 81.9691 86.2907 81.4838 86.664C80.9984 87.028 80.2938 87.21 79.3698 87.21C78.6231 87.21 78.0118 87.098 77.5358 86.874C77.0598 86.65 76.8218 86.3513 76.8218 85.978C76.8218 85.8193 76.8591 85.6747 76.9338 85.544C77.0084 85.404 77.1064 85.2967 77.2278 85.222C77.4891 85.39 77.7924 85.5393 78.1378 85.67C78.4831 85.8007 78.8751 85.866 79.3138 85.866C80.1071 85.866 80.5038 85.6233 80.5038 85.138C80.5038 84.9327 80.4338 84.7693 80.2938 84.648C80.1538 84.5173 79.9391 84.424 79.6498 84.368L78.8518 84.158C78.1704 84.0087 77.6618 83.7753 77.3258 83.458C76.9991 83.1407 76.8358 82.716 76.8358 82.184C76.8358 81.596 77.0784 81.1153 77.5638 80.742C78.0491 80.3593 78.7211 80.168 79.5798 80.168C80.0278 80.168 80.4291 80.2147 80.7838 80.308C81.1384 80.392 81.4138 80.518 81.6098 80.686C81.8151 80.854 81.9178 81.0547 81.9178 81.288C81.9178 81.4467 81.8804 81.5913 81.8058 81.722C81.7404 81.8433 81.6518 81.9367 81.5398 82.002C81.4278 81.9367 81.2738 81.8667 81.0778 81.792C80.8911 81.708 80.6764 81.6427 80.4338 81.596C80.1911 81.54 79.9484 81.512 79.7058 81.512C79.3418 81.512 79.0524 81.5727 78.8378 81.694C78.6324 81.806 78.5298 81.9693 78.5298 82.184C78.5298 82.3427 78.5904 82.478 78.7118 82.59C78.8331 82.702 79.0384 82.7907 79.3278 82.856L80.0418 83.024C80.7978 83.2013 81.3484 83.4627 81.6938 83.808C82.0391 84.144 82.2118 84.5827 82.2118 85.124ZM83.6643 83.304H85.3863V84.956C85.3863 85.264 85.4749 85.4833 85.6523 85.614C85.8389 85.7447 86.1003 85.81 86.4363 85.81C86.5856 85.81 86.7443 85.7913 86.9123 85.754C87.0896 85.7167 87.2389 85.67 87.3603 85.614C87.4256 85.6887 87.4863 85.7773 87.5423 85.88C87.5983 85.9827 87.6263 86.1087 87.6263 86.258C87.6263 86.5287 87.4956 86.7527 87.2343 86.93C86.9823 87.1073 86.5856 87.196 86.0443 87.196C85.3069 87.196 84.7236 87.0327 84.2943 86.706C83.8743 86.37 83.6643 85.8287 83.6643 85.082V83.304ZM84.7143 81.876V80.518H87.4583C87.4956 80.5833 87.5329 80.6767 87.5703 80.798C87.6169 80.9193 87.6403 81.0453 87.6403 81.176C87.6403 81.4093 87.5843 81.5867 87.4723 81.708C87.3603 81.82 87.2156 81.876 87.0383 81.876H84.7143ZM85.3863 83.682H83.6643V78.642C83.7389 78.614 83.8463 78.586 83.9863 78.558C84.1356 78.53 84.2896 78.516 84.4483 78.516C84.7749 78.516 85.0129 78.5767 85.1623 78.698C85.3116 78.81 85.3863 79.0153 85.3863 79.314V83.682ZM93.772 82.618H94.934C95.4847 82.618 95.9234 82.4967 96.25 82.254C96.5767 82.0113 96.74 81.652 96.74 81.176C96.74 80.7093 96.5767 80.3547 96.25 80.112C95.9234 79.8693 95.4427 79.748 94.808 79.748C94.6214 79.748 94.4394 79.7573 94.262 79.776C94.0847 79.7853 93.9214 79.804 93.772 79.832V82.618ZM95.06 84.004H92.008V79.202C92.008 79.034 92.0547 78.9033 92.148 78.81C92.2507 78.7167 92.3814 78.642 92.54 78.586C92.8387 78.4927 93.1887 78.4227 93.59 78.376C94.0007 78.3293 94.416 78.306 94.836 78.306C96.068 78.306 96.9874 78.5627 97.594 79.076C98.21 79.58 98.518 80.2753 98.518 81.162C98.518 81.722 98.3734 82.2167 98.084 82.646C97.804 83.0753 97.4074 83.4113 96.894 83.654C96.3807 83.8873 95.7694 84.004 95.06 84.004ZM94.822 83.556L96.334 83.122C96.5674 83.43 96.8054 83.7427 97.048 84.06C97.3 84.368 97.538 84.6713 97.762 84.97C97.9954 85.2593 98.2007 85.5253 98.378 85.768C98.5647 86.0107 98.7094 86.2113 98.812 86.37C98.7467 86.6033 98.6207 86.7853 98.434 86.916C98.2567 87.0467 98.0607 87.112 97.846 87.112C97.566 87.112 97.3467 87.0513 97.188 86.93C97.0387 86.7993 96.894 86.6267 96.754 86.412L94.822 83.556ZM92.008 83.388H93.786V86.972C93.7114 87 93.5947 87.0233 93.436 87.042C93.2867 87.07 93.128 87.084 92.96 87.084C92.624 87.084 92.3814 87.0233 92.232 86.902C92.0827 86.7713 92.008 86.5567 92.008 86.258V83.388ZM102.811 85.894C103.091 85.894 103.343 85.866 103.567 85.81C103.791 85.754 103.954 85.6933 104.057 85.628V84.032L102.671 84.172C102.288 84.2 101.994 84.284 101.789 84.424C101.593 84.5547 101.495 84.7507 101.495 85.012C101.495 85.2827 101.602 85.4973 101.817 85.656C102.032 85.8147 102.363 85.894 102.811 85.894ZM102.741 80.182C103.656 80.182 104.384 80.378 104.925 80.77C105.466 81.1527 105.737 81.7593 105.737 82.59V85.81C105.737 86.034 105.681 86.2113 105.569 86.342C105.466 86.4727 105.331 86.5893 105.163 86.692C104.902 86.8413 104.57 86.9627 104.169 87.056C103.768 87.1587 103.315 87.21 102.811 87.21C101.878 87.21 101.145 87.0327 100.613 86.678C100.081 86.314 99.8149 85.7773 99.8149 85.068C99.8149 84.4427 100.011 83.9667 100.403 83.64C100.804 83.304 101.383 83.0987 102.139 83.024L104.043 82.828V82.576C104.043 82.2027 103.912 81.932 103.651 81.764C103.399 81.596 103.04 81.512 102.573 81.512C102.209 81.512 101.854 81.5587 101.509 81.652C101.164 81.7453 100.856 81.8573 100.585 81.988C100.492 81.9133 100.408 81.8107 100.333 81.68C100.258 81.5493 100.221 81.414 100.221 81.274C100.221 80.938 100.408 80.6907 100.781 80.532C101.042 80.4107 101.346 80.322 101.691 80.266C102.046 80.21 102.396 80.182 102.741 80.182ZM113.626 82.674V84.032H111.904V82.744C111.904 82.3333 111.787 82.0347 111.554 81.848C111.32 81.652 111.008 81.554 110.616 81.554C110.326 81.554 110.065 81.5913 109.832 81.666C109.608 81.7313 109.407 81.8107 109.23 81.904V84.032H107.508V81.792C107.508 81.568 107.554 81.386 107.648 81.246C107.741 81.0967 107.881 80.9613 108.068 80.84C108.348 80.6533 108.707 80.4993 109.146 80.378C109.594 80.2473 110.088 80.182 110.63 80.182C111.572 80.182 112.305 80.392 112.828 80.812C113.36 81.232 113.626 81.8527 113.626 82.674ZM107.508 83.346H109.23V86.972C109.155 87 109.048 87.0233 108.908 87.042C108.768 87.07 108.614 87.084 108.446 87.084C108.128 87.084 107.89 87.028 107.732 86.916C107.582 86.7947 107.508 86.5847 107.508 86.286V83.346ZM111.904 83.346H113.626V86.972C113.56 87 113.453 87.0233 113.304 87.042C113.164 87.07 113.014 87.084 112.856 87.084C112.529 87.084 112.286 87.028 112.128 86.916C111.978 86.7947 111.904 86.5847 111.904 86.286V83.346ZM118.181 86.762C117.631 86.762 117.122 86.6593 116.655 86.454C116.189 86.2393 115.815 85.8893 115.535 85.404C115.255 84.9187 115.115 84.2793 115.115 83.486C115.115 82.758 115.255 82.1513 115.535 81.666C115.825 81.1713 116.226 80.8027 116.739 80.56C117.262 80.308 117.859 80.182 118.531 80.182C119.007 80.182 119.446 80.2427 119.847 80.364C120.258 80.4853 120.585 80.6253 120.827 80.784C120.986 80.8867 121.112 81.0127 121.205 81.162C121.308 81.302 121.359 81.4747 121.359 81.68V86.048H119.679V81.834C119.558 81.7593 119.409 81.694 119.231 81.638C119.054 81.582 118.835 81.554 118.573 81.554C118.06 81.554 117.64 81.7127 117.313 82.03C116.996 82.3473 116.837 82.8327 116.837 83.486C116.837 84.2047 116.991 84.7087 117.299 84.998C117.617 85.2873 118.004 85.432 118.461 85.432C118.816 85.432 119.101 85.3713 119.315 85.25C119.539 85.1287 119.726 84.998 119.875 84.858L119.931 86.258C119.763 86.3887 119.53 86.5053 119.231 86.608C118.942 86.7107 118.592 86.762 118.181 86.762ZM119.707 87.042V85.67H121.359V87.098C121.359 87.7327 121.215 88.246 120.925 88.638C120.636 89.0393 120.239 89.3333 119.735 89.52C119.241 89.7067 118.685 89.8 118.069 89.8C117.584 89.8 117.159 89.7533 116.795 89.66C116.441 89.5667 116.179 89.4687 116.011 89.366C115.703 89.1793 115.549 88.9227 115.549 88.596C115.549 88.428 115.587 88.2787 115.661 88.148C115.736 88.0173 115.825 87.9193 115.927 87.854C116.161 88.0033 116.45 88.134 116.795 88.246C117.15 88.358 117.523 88.414 117.915 88.414C118.475 88.414 118.914 88.302 119.231 88.078C119.549 87.8633 119.707 87.518 119.707 87.042ZM123.891 84.564L123.821 83.36L127.573 82.8C127.545 82.4453 127.409 82.1373 127.167 81.876C126.924 81.6147 126.569 81.484 126.103 81.484C125.627 81.484 125.23 81.652 124.913 81.988C124.595 82.3147 124.432 82.786 124.423 83.402L124.465 84.13C124.549 84.7273 124.777 85.166 125.151 85.446C125.533 85.726 126.014 85.866 126.593 85.866C126.985 85.866 127.349 85.81 127.685 85.698C128.021 85.5767 128.287 85.446 128.483 85.306C128.613 85.39 128.716 85.4973 128.791 85.628C128.875 85.7493 128.917 85.8847 128.917 86.034C128.917 86.2767 128.809 86.4867 128.595 86.664C128.38 86.832 128.091 86.9627 127.727 87.056C127.363 87.1493 126.947 87.196 126.481 87.196C125.762 87.196 125.123 87.0653 124.563 86.804C124.012 86.5333 123.578 86.132 123.261 85.6C122.953 85.068 122.799 84.4053 122.799 83.612C122.799 83.0427 122.887 82.5433 123.065 82.114C123.242 81.6847 123.48 81.33 123.779 81.05C124.087 80.7607 124.441 80.546 124.843 80.406C125.244 80.2567 125.664 80.182 126.103 80.182C126.719 80.182 127.255 80.308 127.713 80.56C128.179 80.8027 128.543 81.1433 128.805 81.582C129.075 82.0207 129.211 82.5247 129.211 83.094C129.211 83.3553 129.141 83.5513 129.001 83.682C128.87 83.8033 128.683 83.878 128.441 83.906L123.891 84.564ZM68.032 103.682C68.032 104.401 67.892 105.026 67.612 105.558C67.332 106.081 66.9353 106.487 66.422 106.776C65.918 107.056 65.3207 107.196 64.63 107.196C63.9393 107.196 63.3373 107.056 62.824 106.776C62.3107 106.487 61.9093 106.081 61.62 105.558C61.34 105.035 61.2 104.41 61.2 103.682C61.2 102.963 61.3447 102.343 61.634 101.82C61.9233 101.297 62.3247 100.896 62.838 100.616C63.3513 100.327 63.9487 100.182 64.63 100.182C65.3113 100.182 65.904 100.327 66.408 100.616C66.9213 100.896 67.318 101.302 67.598 101.834C67.8873 102.357 68.032 102.973 68.032 103.682ZM64.63 101.554C64.1167 101.554 63.7107 101.741 63.412 102.114C63.1227 102.487 62.978 103.01 62.978 103.682C62.978 104.373 63.1227 104.905 63.412 105.278C63.7013 105.642 64.1073 105.824 64.63 105.824C65.1433 105.824 65.5447 105.637 65.834 105.264C66.1233 104.891 66.268 104.363 66.268 103.682C66.268 103.019 66.1233 102.501 65.834 102.128C65.5447 101.745 65.1433 101.554 64.63 101.554ZM70.9207 102.156V100.812H73.7347C73.772 100.877 73.8094 100.971 73.8467 101.092C73.8934 101.204 73.9167 101.335 73.9167 101.484C73.9167 101.717 73.8607 101.89 73.7487 102.002C73.646 102.105 73.4967 102.156 73.3007 102.156H70.9207ZM71.1867 100.14V101.946H69.5347V100.07C69.5347 99.482 69.6514 99.006 69.8847 98.642C70.1274 98.2687 70.4587 97.998 70.8787 97.83C71.308 97.6527 71.7934 97.564 72.3347 97.564C72.9414 97.564 73.4034 97.6433 73.7207 97.802C74.038 97.9607 74.1967 98.1987 74.1967 98.516C74.1967 98.656 74.164 98.7867 74.0987 98.908C74.0427 99.02 73.9727 99.1133 73.8887 99.188C73.7114 99.1133 73.5107 99.0527 73.2867 99.006C73.072 98.9593 72.8434 98.936 72.6007 98.936C72.106 98.936 71.7467 99.0293 71.5227 99.216C71.2987 99.4027 71.1867 99.7107 71.1867 100.14ZM69.5347 101.456H71.2567V106.972C71.182 107 71.0747 107.023 70.9347 107.042C70.7947 107.07 70.6407 107.084 70.4727 107.084C70.1554 107.084 69.9174 107.028 69.7587 106.916C69.6094 106.795 69.5347 106.585 69.5347 106.286V101.456ZM80.7663 105.768C81.3077 105.768 81.709 105.661 81.9703 105.446C82.2317 105.222 82.3623 104.947 82.3623 104.62C82.3623 104.331 82.2597 104.097 82.0543 103.92C81.8583 103.733 81.555 103.579 81.1443 103.458L80.2343 103.178C79.7677 103.019 79.357 102.842 79.0023 102.646C78.657 102.45 78.3863 102.198 78.1903 101.89C78.0037 101.573 77.9103 101.185 77.9103 100.728C77.9103 99.972 78.1903 99.3747 78.7503 98.936C79.3197 98.4973 80.0943 98.278 81.0743 98.278C81.597 98.278 82.059 98.334 82.4603 98.446C82.871 98.5487 83.193 98.6933 83.4263 98.88C83.669 99.0667 83.7903 99.286 83.7903 99.538C83.7903 99.7153 83.7437 99.874 83.6503 100.014C83.5663 100.145 83.459 100.252 83.3283 100.336C83.1137 100.177 82.8197 100.042 82.4463 99.93C82.073 99.8087 81.667 99.748 81.2283 99.748C80.743 99.748 80.3697 99.8367 80.1083 100.014C79.847 100.191 79.7163 100.429 79.7163 100.728C79.7163 100.971 79.805 101.167 79.9823 101.316C80.169 101.465 80.449 101.596 80.8223 101.708L81.6343 101.946C82.437 102.189 83.0623 102.52 83.5103 102.94C83.9583 103.351 84.1823 103.915 84.1823 104.634C84.1823 105.399 83.8883 106.02 83.3003 106.496C82.7217 106.972 81.891 107.21 80.8083 107.21C80.239 107.21 79.735 107.149 79.2963 107.028C78.8577 106.907 78.5077 106.739 78.2463 106.524C77.9943 106.309 77.8683 106.067 77.8683 105.796C77.8683 105.591 77.9337 105.413 78.0643 105.264C78.195 105.115 78.335 105.003 78.4843 104.928C78.727 105.133 79.0397 105.325 79.4223 105.502C79.805 105.679 80.253 105.768 80.7663 105.768ZM86.4092 104.564L86.3392 103.36L90.0912 102.8C90.0632 102.445 89.9279 102.137 89.6852 101.876C89.4425 101.615 89.0879 101.484 88.6212 101.484C88.1452 101.484 87.7485 101.652 87.4312 101.988C87.1139 102.315 86.9505 102.786 86.9412 103.402L86.9832 104.13C87.0672 104.727 87.2959 105.166 87.6692 105.446C88.0519 105.726 88.5325 105.866 89.1112 105.866C89.5032 105.866 89.8672 105.81 90.2032 105.698C90.5392 105.577 90.8052 105.446 91.0012 105.306C91.1319 105.39 91.2345 105.497 91.3092 105.628C91.3932 105.749 91.4352 105.885 91.4352 106.034C91.4352 106.277 91.3279 106.487 91.1132 106.664C90.8985 106.832 90.6092 106.963 90.2452 107.056C89.8812 107.149 89.4659 107.196 88.9992 107.196C88.2805 107.196 87.6412 107.065 87.0812 106.804C86.5305 106.533 86.0965 106.132 85.7792 105.6C85.4712 105.068 85.3172 104.405 85.3172 103.612C85.3172 103.043 85.4059 102.543 85.5832 102.114C85.7605 101.685 85.9985 101.33 86.2972 101.05C86.6052 100.761 86.9599 100.546 87.3612 100.406C87.7625 100.257 88.1825 100.182 88.6212 100.182C89.2372 100.182 89.7739 100.308 90.2312 100.56C90.6979 100.803 91.0619 101.143 91.3232 101.582C91.5939 102.021 91.7292 102.525 91.7292 103.094C91.7292 103.355 91.6592 103.551 91.5192 103.682C91.3885 103.803 91.2019 103.878 90.9592 103.906L86.4092 104.564ZM94.84 101.96V103.878H93.118V101.82C93.118 101.587 93.174 101.391 93.286 101.232C93.398 101.064 93.5567 100.91 93.762 100.77C94.042 100.602 94.3967 100.462 94.826 100.35C95.2554 100.238 95.7174 100.182 96.212 100.182C97.0894 100.182 97.528 100.453 97.528 100.994C97.528 101.125 97.5094 101.246 97.472 101.358C97.4347 101.461 97.388 101.554 97.332 101.638C97.2387 101.619 97.122 101.605 96.982 101.596C96.842 101.577 96.6927 101.568 96.534 101.568C96.198 101.568 95.8807 101.605 95.582 101.68C95.2927 101.745 95.0454 101.839 94.84 101.96ZM93.118 103.304L94.84 103.388V106.972C94.7654 107 94.658 107.023 94.518 107.042C94.378 107.07 94.224 107.084 94.056 107.084C93.7387 107.084 93.5007 107.028 93.342 106.916C93.1927 106.795 93.118 106.585 93.118 106.286V103.304ZM103.998 100.238C104.24 100.238 104.441 100.294 104.6 100.406C104.758 100.518 104.838 100.695 104.838 100.938C104.838 101.087 104.786 101.339 104.684 101.694C104.59 102.039 104.464 102.445 104.306 102.912C104.147 103.379 103.97 103.859 103.774 104.354C103.587 104.849 103.396 105.32 103.2 105.768C103.004 106.207 102.826 106.575 102.668 106.874C102.584 106.939 102.448 106.995 102.262 107.042C102.084 107.089 101.884 107.112 101.66 107.112C101.398 107.112 101.174 107.075 100.988 107C100.801 106.935 100.67 106.827 100.596 106.678C100.493 106.482 100.362 106.207 100.204 105.852C100.054 105.497 99.8909 105.091 99.7136 104.634C99.5362 104.177 99.3589 103.705 99.1816 103.22C99.0042 102.735 98.8409 102.268 98.6916 101.82C98.5516 101.372 98.4349 100.975 98.3416 100.63C98.4442 100.518 98.5749 100.425 98.7336 100.35C98.9016 100.275 99.0742 100.238 99.2516 100.238C99.4942 100.238 99.6902 100.294 99.8396 100.406C99.9982 100.509 100.115 100.7 100.19 100.98L100.904 103.318C100.978 103.561 101.062 103.827 101.156 104.116C101.258 104.396 101.352 104.667 101.436 104.928C101.52 105.18 101.59 105.395 101.646 105.572H101.702C101.982 104.751 102.252 103.897 102.514 103.01C102.784 102.123 103.018 101.26 103.214 100.42C103.438 100.299 103.699 100.238 103.998 100.238ZM106.063 98.404C106.063 98.1333 106.157 97.9047 106.343 97.718C106.539 97.5313 106.782 97.438 107.071 97.438C107.37 97.438 107.608 97.5313 107.785 97.718C107.972 97.9047 108.065 98.1333 108.065 98.404C108.065 98.6653 107.972 98.894 107.785 99.09C107.608 99.2767 107.37 99.37 107.071 99.37C106.782 99.37 106.539 99.2767 106.343 99.09C106.157 98.894 106.063 98.6653 106.063 98.404ZM106.203 103.304H107.939V106.972C107.865 107 107.757 107.023 107.617 107.042C107.477 107.07 107.323 107.084 107.155 107.084C106.838 107.084 106.6 107.028 106.441 106.916C106.283 106.795 106.203 106.585 106.203 106.286V103.304ZM107.939 104.186H106.203V100.434C106.278 100.406 106.385 100.383 106.525 100.364C106.675 100.336 106.833 100.322 107.001 100.322C107.328 100.322 107.566 100.383 107.715 100.504C107.865 100.616 107.939 100.826 107.939 101.134V104.186ZM113.2 101.568C112.64 101.568 112.168 101.75 111.786 102.114C111.412 102.478 111.226 103.01 111.226 103.71C111.226 104.401 111.408 104.923 111.772 105.278C112.136 105.633 112.607 105.81 113.186 105.81C113.531 105.81 113.82 105.768 114.054 105.684C114.296 105.591 114.506 105.493 114.684 105.39C114.824 105.474 114.931 105.577 115.006 105.698C115.09 105.81 115.132 105.95 115.132 106.118C115.132 106.435 114.94 106.697 114.558 106.902C114.175 107.098 113.671 107.196 113.046 107.196C112.336 107.196 111.711 107.07 111.17 106.818C110.638 106.557 110.218 106.165 109.91 105.642C109.611 105.119 109.462 104.475 109.462 103.71C109.462 102.917 109.62 102.259 109.938 101.736C110.264 101.213 110.694 100.826 111.226 100.574C111.767 100.313 112.36 100.182 113.004 100.182C113.62 100.182 114.114 100.289 114.488 100.504C114.861 100.719 115.048 100.985 115.048 101.302C115.048 101.442 115.01 101.573 114.936 101.694C114.861 101.815 114.772 101.913 114.67 101.988C114.483 101.876 114.273 101.778 114.04 101.694C113.806 101.61 113.526 101.568 113.2 101.568ZM117.144 104.564L117.074 103.36L120.826 102.8C120.798 102.445 120.662 102.137 120.42 101.876C120.177 101.615 119.822 101.484 119.356 101.484C118.88 101.484 118.483 101.652 118.166 101.988C117.848 102.315 117.685 102.786 117.676 103.402L117.718 104.13C117.802 104.727 118.03 105.166 118.404 105.446C118.786 105.726 119.267 105.866 119.846 105.866C120.238 105.866 120.602 105.81 120.938 105.698C121.274 105.577 121.54 105.446 121.736 105.306C121.866 105.39 121.969 105.497 122.044 105.628C122.128 105.749 122.17 105.885 122.17 106.034C122.17 106.277 122.062 106.487 121.848 106.664C121.633 106.832 121.344 106.963 120.98 107.056C120.616 107.149 120.2 107.196 119.734 107.196C119.015 107.196 118.376 107.065 117.816 106.804C117.265 106.533 116.831 106.132 116.514 105.6C116.206 105.068 116.052 104.405 116.052 103.612C116.052 103.043 116.14 102.543 116.318 102.114C116.495 101.685 116.733 101.33 117.032 101.05C117.34 100.761 117.694 100.546 118.096 100.406C118.497 100.257 118.917 100.182 119.356 100.182C119.972 100.182 120.508 100.308 120.966 100.56C121.432 100.803 121.796 101.143 122.058 101.582C122.328 102.021 122.464 102.525 122.464 103.094C122.464 103.355 122.394 103.551 122.254 103.682C122.123 103.803 121.936 103.878 121.694 103.906L117.144 104.564ZM129.017 105.124C129.017 105.777 128.775 106.291 128.289 106.664C127.804 107.028 127.099 107.21 126.175 107.21C125.429 107.21 124.817 107.098 124.341 106.874C123.865 106.65 123.627 106.351 123.627 105.978C123.627 105.819 123.665 105.675 123.739 105.544C123.814 105.404 123.912 105.297 124.033 105.222C124.295 105.39 124.598 105.539 124.943 105.67C125.289 105.801 125.681 105.866 126.119 105.866C126.913 105.866 127.309 105.623 127.309 105.138C127.309 104.933 127.239 104.769 127.099 104.648C126.959 104.517 126.745 104.424 126.455 104.368L125.657 104.158C124.976 104.009 124.467 103.775 124.131 103.458C123.805 103.141 123.641 102.716 123.641 102.184C123.641 101.596 123.884 101.115 124.369 100.742C124.855 100.359 125.527 100.168 126.385 100.168C126.833 100.168 127.235 100.215 127.589 100.308C127.944 100.392 128.219 100.518 128.415 100.686C128.621 100.854 128.723 101.055 128.723 101.288C128.723 101.447 128.686 101.591 128.611 101.722C128.546 101.843 128.457 101.937 128.345 102.002C128.233 101.937 128.079 101.867 127.883 101.792C127.697 101.708 127.482 101.643 127.239 101.596C126.997 101.54 126.754 101.512 126.511 101.512C126.147 101.512 125.858 101.573 125.643 101.694C125.438 101.806 125.335 101.969 125.335 102.184C125.335 102.343 125.396 102.478 125.517 102.59C125.639 102.702 125.844 102.791 126.133 102.856L126.847 103.024C127.603 103.201 128.154 103.463 128.499 103.808C128.845 104.144 129.017 104.583 129.017 105.124Z" fill="#0F172A"/>
<rect x="12" y="123" width="34" height="34" rx="17" fill="#19317C"/>
<rect x="12" y="123" width="34" height="34" rx="17" stroke="white" stroke-width="2"/>
<path d="M38.7141 136.119C38.9379 135.95 39.1033 135.715 39.1867 135.447C39.2701 135.178 39.2674 134.89 39.1789 134.624C39.0905 134.357 38.9207 134.125 38.6937 133.961C38.4667 133.796 38.194 133.708 37.9142 133.708V134.244C38.1264 134.244 38.3298 134.328 38.4798 134.479C38.6298 134.63 38.7141 134.834 38.7141 135.047C38.7141 135.26 38.6298 135.465 38.4798 135.615C38.3298 135.766 38.1264 135.851 37.9142 135.851V136.387C38.0724 136.387 38.2271 136.434 38.3586 136.522C38.4902 136.61 38.5927 136.736 38.6532 136.883C38.7138 137.029 38.7296 137.191 38.6987 137.347C38.6679 137.503 38.5917 137.646 38.4798 137.758C38.368 137.871 38.2254 137.947 38.0703 137.978C37.9151 138.009 37.7543 137.993 37.6082 137.932C37.462 137.872 37.3371 137.769 37.2492 137.637C37.1613 137.504 37.1144 137.349 37.1144 137.19H36.5811V137.458C36.5811 137.671 36.4969 137.875 36.3469 138.026C36.1969 138.177 35.9934 138.262 35.7813 138.262C35.5691 138.262 35.3657 138.177 35.2157 138.026C35.0657 137.875 34.9814 137.671 34.9814 137.458H34.4482C34.4482 137.755 34.5462 138.043 34.7268 138.277C34.9074 138.512 35.1604 138.68 35.4462 138.754C35.7319 138.829 36.0342 138.806 36.3056 138.689C36.577 138.573 36.8022 138.369 36.9459 138.11C37.0725 138.245 37.2258 138.352 37.396 138.425C37.5662 138.498 37.7496 138.534 37.9345 138.531C38.1194 138.529 38.3018 138.488 38.47 138.411C38.6383 138.334 38.7887 138.222 38.9118 138.084C39.0349 137.945 39.128 137.782 39.1851 137.606C39.2422 137.429 39.2621 137.242 39.2435 137.058C39.2249 136.873 39.1682 136.694 39.0771 136.532C38.9859 136.371 38.8623 136.23 38.7141 136.119Z" fill="white"/>
<path d="M29.7555 134.059C29.8854 133.983 29.9931 133.873 30.0679 133.742C30.1427 133.61 30.1821 133.462 30.1821 133.311V133.244C30.1821 133.13 30.158 133.017 30.1114 132.913C30.0648 132.809 29.9967 132.717 29.9116 132.641C29.8266 132.566 29.7266 132.509 29.6182 132.476C29.5099 132.442 29.3956 132.432 29.2831 132.446L23.9507 133.116C23.7572 133.14 23.5792 133.235 23.4502 133.381C23.3212 133.528 23.25 133.717 23.25 133.913V134.235C23.2499 134.29 23.2672 134.344 23.2993 134.39L24.5644 136.178L23.7891 139.812C23.7852 139.831 23.7832 139.85 23.7832 139.869V148.172C23.7832 148.243 23.8113 148.311 23.8613 148.361C23.9113 148.412 23.9791 148.44 24.0499 148.44H28.849C28.9197 148.44 28.9876 148.412 29.0376 148.361C29.0876 148.311 29.1156 148.243 29.1156 148.172V139.869C29.1152 139.728 29.0991 139.589 29.0677 139.452L28.3158 136.089V135.292L29.5449 136.88C29.6194 136.977 29.7151 137.055 29.8246 137.109C29.9341 137.163 30.0544 137.191 30.1763 137.19H30.982C31.0281 137.19 31.0734 137.178 31.1135 137.155C31.1536 137.132 31.1871 137.099 31.2108 137.06C31.2345 137.02 31.2475 136.975 31.2485 136.928C31.2496 136.882 31.2387 136.836 31.2169 136.796L29.7555 134.059ZM23.7832 133.913C23.7832 133.848 23.8069 133.785 23.8499 133.736C23.8929 133.687 23.9523 133.655 24.0168 133.647L29.3492 132.978C29.3867 132.973 29.4248 132.976 29.461 132.987C29.4971 132.999 29.5304 133.017 29.5588 133.043C29.5873 133.068 29.6101 133.099 29.6257 133.133C29.6412 133.168 29.6491 133.206 29.6489 133.244V133.311C29.6489 133.376 29.6298 133.44 29.5938 133.495C29.5579 133.55 29.5068 133.593 29.4468 133.619L29.282 133.69L27.9441 134.265C27.911 134.28 27.8814 134.302 27.8572 134.329C27.8516 134.335 27.8465 134.341 27.8417 134.347C27.8193 134.375 27.8028 134.407 27.7929 134.441L27.7911 134.445C27.7911 134.448 27.7911 134.452 27.7911 134.456C27.7862 134.474 27.7834 134.493 27.7825 134.512V135.851H24.9873L23.7832 134.149V133.913ZM24.3165 140.136H25.4043C25.4534 140.483 25.5981 140.808 25.8219 141.076C26.0457 141.343 26.3397 141.543 26.6705 141.651C27.0014 141.76 27.3559 141.773 27.6938 141.689C28.0317 141.606 28.3396 141.429 28.5824 141.178V142.279H24.3165V140.136ZM25.4043 139.601H24.3797L25.0654 136.387H27.8359L28.2638 138.297C28.0016 138.125 27.7004 138.023 27.3883 137.999C27.0762 137.975 26.7631 138.031 26.4781 138.161C26.193 138.291 25.9452 138.491 25.7575 138.743C25.5698 138.994 25.4483 139.289 25.4043 139.601ZM24.3165 147.904V142.815H28.5824V147.904H24.3165ZM27.2493 141.208C26.9856 141.208 26.7279 141.129 26.5087 140.982C26.2894 140.835 26.1186 140.626 26.0177 140.381C25.9168 140.136 25.8904 139.867 25.9418 139.607C25.9933 139.348 26.1202 139.109 26.3067 138.922C26.4931 138.734 26.7306 138.607 26.9892 138.555C27.2478 138.503 27.5159 138.53 27.7595 138.631C28.0031 138.733 28.2113 138.904 28.3577 139.125C28.5042 139.345 28.5824 139.604 28.5824 139.869C28.582 140.224 28.4414 140.564 28.1915 140.815C27.9416 141.066 27.6027 141.207 27.2493 141.208ZM30.1763 136.654C30.1356 136.655 30.0955 136.645 30.059 136.627C30.0226 136.609 29.9907 136.583 29.9659 136.551L28.4728 134.622L29.2676 134.279L30.5365 136.654H30.1763Z" fill="white"/>
<path d="M35.9395 135.56L36.156 135.071L32.5052 133.44H36.3144V132.905H31.2486C31.1985 132.905 31.1495 132.919 31.1071 132.946C31.0647 132.972 31.0307 133.01 31.0088 133.056C30.9869 133.101 30.9782 133.151 30.9835 133.201C30.9889 133.251 31.0081 133.299 31.039 133.338L33.9718 137.088L34.391 136.757L32.122 133.856L35.9395 135.56Z" fill="white"/>
<rect x="44" y="123" width="34" height="34" rx="17" fill="#697AFF"/>
<rect x="44" y="123" width="34" height="34" rx="17" stroke="white" stroke-width="2"/>
<path d="M65.6476 140.045L63.5167 139.741V139.253C63.5433 139.235 63.57 139.216 63.5919 139.197C64.0138 138.869 64.314 138.409 64.4452 137.89C64.5157 137.612 64.5592 137.327 64.5751 137.04H64.5833C64.8408 137.041 65.0899 136.948 65.2844 136.779C65.4788 136.611 65.6054 136.377 65.6407 136.122C65.676 135.867 65.6175 135.608 65.4762 135.392C65.3348 135.177 65.1202 135.02 64.8721 134.951C64.9264 134.747 64.9187 134.532 64.85 134.332V133.307C64.85 132.812 64.6533 132.337 64.3033 131.987C63.9532 131.637 63.4784 131.44 62.9833 131.44H60.85C60.3549 131.44 59.8801 131.637 59.5301 131.987C59.18 132.337 58.9833 132.812 58.9833 133.307V134.332C58.9147 134.532 58.907 134.747 58.9612 134.951C58.7139 135.021 58.5002 135.178 58.3595 135.393C58.2189 135.608 58.1608 135.867 58.196 136.121C58.2312 136.376 58.3573 136.609 58.551 136.778C58.7448 136.947 58.993 137.04 59.25 137.04H59.2583C59.2742 137.326 59.3179 137.61 59.3887 137.888C59.5248 138.439 59.8541 138.923 60.3167 139.251V139.758L57.65 140.328C57.2552 140.414 56.8883 140.599 56.5833 140.864V140.507C56.583 140.395 56.5591 140.284 56.5131 140.182C56.4672 140.08 56.4002 139.989 56.3167 139.915V138.907C56.3167 138.836 56.2886 138.768 56.2386 138.718C56.1886 138.668 56.1207 138.64 56.05 138.64H55.5167V138.071C55.5162 137.943 55.4697 137.819 55.3857 137.722C55.3016 137.625 55.1857 137.562 55.0588 137.543L51.7833 137.075V135.707H52.3167V136.507C52.3167 136.577 52.3448 136.645 52.3948 136.695C52.4448 136.745 52.5126 136.773 52.5833 136.773H55.5657C55.6004 136.872 55.6542 136.963 55.7242 137.041C55.7941 137.119 55.8788 137.183 55.9733 137.228C56.0678 137.274 56.1704 137.3 56.2751 137.305C56.3797 137.311 56.4845 137.296 56.5833 137.261V137.573C56.5833 137.785 56.6676 137.989 56.8176 138.139C56.9677 138.289 57.1712 138.373 57.3833 138.373C57.5955 138.373 57.799 138.289 57.949 138.139C58.099 137.989 58.1833 137.785 58.1833 137.573V134.373C58.1833 134.303 58.1552 134.235 58.1052 134.185C58.0552 134.135 57.9874 134.107 57.9167 134.107H52.5833C52.5126 134.107 52.4448 134.135 52.3948 134.185C52.3448 134.235 52.3167 134.303 52.3167 134.373V135.173H51.7833C51.6419 135.173 51.5062 135.229 51.4062 135.329C51.3062 135.43 51.25 135.565 51.25 135.707V137.075C51.2505 137.204 51.297 137.327 51.381 137.424C51.465 137.521 51.581 137.585 51.7079 137.603L54.9833 138.071V138.64H54.45C54.3793 138.64 54.3114 138.668 54.2614 138.718C54.2114 138.768 54.1833 138.836 54.1833 138.907V139.707C53.9712 139.707 53.7677 139.791 53.6176 139.941C53.4676 140.091 53.3833 140.294 53.3833 140.507V142.107C53.3836 142.164 53.3901 142.221 53.4028 142.278C53.3903 142.308 53.3837 142.34 53.3833 142.373V145.997C53.3829 146.368 53.5256 146.725 53.7816 146.993C54.0377 147.261 54.3873 147.42 54.7577 147.437C54.7804 147.437 54.8028 147.439 54.8252 147.439C55.0346 147.438 55.2414 147.393 55.4315 147.305C55.6215 147.217 55.7903 147.089 55.9263 146.93L57.9449 144.276L58.5833 143.44H58.7167V147.44H59.25V143.44H64.5833V147.44H65.1167V144.24H66.7167V147.44H67.25V141.893C67.2473 141.445 67.0844 141.012 66.7905 140.673C66.4966 140.334 66.0913 140.111 65.6476 140.045ZM52.85 134.64H57.65V137.573C57.65 137.644 57.6219 137.712 57.5719 137.762C57.5219 137.812 57.4541 137.84 57.3833 137.84C57.3126 137.84 57.2448 137.812 57.1948 137.762C57.1448 137.712 57.1167 137.644 57.1167 137.573V136.507C57.1167 136.436 57.0886 136.368 57.0386 136.318C56.9886 136.268 56.9207 136.24 56.85 136.24C56.7793 136.24 56.7114 136.268 56.6614 136.318C56.6114 136.368 56.5833 136.436 56.5833 136.507C56.5833 136.577 56.5552 136.645 56.5052 136.695C56.4552 136.745 56.3874 136.773 56.3167 136.773C56.2459 136.773 56.1781 136.745 56.1281 136.695C56.0781 136.645 56.05 136.577 56.05 136.507V135.173H55.5167V136.24H52.85V134.64ZM61.7167 139.707H62.1167C62.4135 139.705 62.7074 139.648 62.9833 139.539V139.973C62.9833 140.256 62.871 140.527 62.6709 140.728C62.4709 140.928 62.1996 141.04 61.9167 141.04C61.6338 141.04 61.3625 140.928 61.1624 140.728C60.9624 140.527 60.85 140.256 60.85 139.973V139.539C61.1259 139.648 61.4199 139.705 61.7167 139.707ZM61.9167 141.573C62.1809 141.573 62.4409 141.507 62.6736 141.382C62.9062 141.257 63.1043 141.076 63.25 140.856V142.907H60.5833V140.856C60.7291 141.076 60.9271 141.257 61.1598 141.382C61.3924 141.507 61.6525 141.573 61.9167 141.573ZM63.0127 135.086C62.287 134.964 61.5463 134.964 60.8207 135.086L60.0895 135.207C60.0091 135.221 59.9268 135.216 59.8486 135.193C59.7704 135.17 59.6983 135.13 59.6378 135.075C59.5773 135.021 59.5298 134.953 59.4989 134.878C59.468 134.803 59.4545 134.721 59.4593 134.64H64.374C64.3789 134.721 64.3653 134.803 64.3344 134.878C64.3036 134.953 64.2561 135.021 64.1955 135.075C64.135 135.13 64.063 135.17 63.9848 135.193C63.9066 135.216 63.8242 135.221 63.7439 135.207L63.0127 135.086ZM65.1167 135.973C65.1167 136.115 65.0605 136.25 64.9605 136.35C64.8604 136.45 64.7248 136.507 64.5833 136.507V135.44C64.7248 135.44 64.8604 135.496 64.9605 135.596C65.0605 135.696 65.1167 135.832 65.1167 135.973ZM59.5167 133.307C59.5167 132.953 59.6571 132.614 59.9072 132.364C60.1572 132.114 60.4964 131.973 60.85 131.973H62.9833C63.337 131.973 63.6761 132.114 63.9261 132.364C64.1762 132.614 64.3167 132.953 64.3167 133.307V134.107H59.5167V133.307ZM58.8732 136.35C58.7985 136.276 58.7477 136.181 58.727 136.077C58.7064 135.974 58.717 135.867 58.7573 135.77C58.7977 135.672 58.8661 135.589 58.9538 135.531C59.0415 135.472 59.1446 135.441 59.25 135.441V136.507C59.1087 136.506 58.9733 136.45 58.8732 136.35ZM59.9057 137.758C59.8239 137.436 59.7828 137.105 59.7833 136.773V135.726C59.9131 135.753 60.0466 135.755 60.1772 135.734L60.3412 135.707C60.3174 135.772 60.311 135.843 60.3228 135.912C60.3346 135.98 60.3641 136.045 60.4085 136.098C60.4528 136.152 60.5104 136.193 60.5755 136.218C60.6406 136.243 60.7111 136.25 60.7799 136.239C60.8487 136.228 60.9134 136.199 60.9677 136.155C61.022 136.112 61.0639 136.055 61.0894 135.99C61.1148 135.925 61.1229 135.855 61.1128 135.786C61.1027 135.717 61.0748 135.652 61.0319 135.597C61.6186 135.511 62.2147 135.511 62.8015 135.597C62.7585 135.652 62.7306 135.717 62.7205 135.786C62.7104 135.855 62.7185 135.925 62.744 135.99C62.7694 136.055 62.8114 136.112 62.8656 136.155C62.9199 136.199 62.9847 136.228 63.0534 136.239C63.1222 136.25 63.1927 136.243 63.2578 136.218C63.323 136.193 63.3806 136.152 63.4249 136.098C63.4692 136.045 63.4987 135.98 63.5105 135.912C63.5223 135.843 63.516 135.772 63.4921 135.707L63.6561 135.734C63.7163 135.744 63.7772 135.749 63.8383 135.749C63.9094 135.748 63.9804 135.74 64.05 135.725V136.773C64.0506 137.106 64.0094 137.437 63.9273 137.76C63.8253 138.165 63.5906 138.524 63.2607 138.781C63.2118 138.82 63.1604 138.855 63.1068 138.887C62.8107 139.075 62.4672 139.174 62.1167 139.173H61.7167C61.3004 139.172 60.8964 139.032 60.5685 138.776C60.2405 138.52 60.0073 138.161 59.9057 137.758ZM54.7167 142.907H55.7833V143.44H54.7167V142.907ZM54.7167 139.173H55.7833V139.707H54.7167V139.173ZM53.9167 140.507C53.9167 140.436 53.9448 140.368 53.9948 140.318C54.0448 140.268 54.1126 140.24 54.1833 140.24H55.7833C55.8541 140.24 55.9219 140.268 55.9719 140.318C56.0219 140.368 56.05 140.436 56.05 140.507V142.107C56.05 142.177 56.0219 142.245 55.9719 142.295C55.9219 142.345 55.8541 142.373 55.7833 142.373H54.1833C54.1126 142.373 54.0448 142.345 53.9948 142.295C53.9448 142.245 53.9167 142.177 53.9167 142.107V140.507ZM53.9167 145.997V142.858C54.0021 142.889 54.0923 142.906 54.1833 142.907V143.707C54.1833 143.777 54.2114 143.845 54.2614 143.895C54.3114 143.945 54.3793 143.973 54.45 143.973H55.5167V146.107C55.5171 146.309 55.44 146.505 55.3012 146.653C55.1625 146.801 54.9724 146.89 54.77 146.903C54.5486 146.891 54.3395 146.797 54.1833 146.64C54.0986 146.556 54.0314 146.456 53.9857 146.345C53.9399 146.235 53.9164 146.117 53.9167 145.997ZM56.05 145.887V143.973C56.1207 143.973 56.1886 143.945 56.2386 143.895C56.2886 143.845 56.3167 143.777 56.3167 143.707V143.179L57.3732 144.147L56.05 145.887ZM58.45 142.907C58.4087 142.906 58.368 142.916 58.331 142.934C58.294 142.952 58.2617 142.979 58.2367 143.012L57.6961 143.721L56.4351 142.566C56.531 142.432 56.5829 142.271 56.5833 142.107V141.665L56.5929 141.651C56.8632 141.242 57.2825 140.955 57.7615 140.851L58.7167 140.646V142.907H58.45ZM59.25 142.907V140.532L60.05 140.36V142.907H59.25ZM63.7833 142.907V140.32L64.5833 140.434V142.907H63.7833ZM66.7167 143.707H65.1167V140.508L65.5716 140.573C65.8886 140.62 66.1782 140.779 66.3882 141.022C66.5982 141.264 66.7147 141.573 66.7167 141.893V143.707ZM60.3167 144.507H59.7833V143.973H60.3167V144.507ZM64.05 144.507H63.5167V143.973H64.05V144.507ZM59.7833 147.173C59.7833 147.244 59.8114 147.312 59.8614 147.362C59.9114 147.412 59.9793 147.44 60.05 147.44H63.7833C63.8541 147.44 63.9219 147.412 63.9719 147.362C64.0219 147.312 64.05 147.244 64.05 147.173V145.307C64.05 145.236 64.0219 145.168 63.9719 145.118C63.9219 145.068 63.8541 145.04 63.7833 145.04H60.05C59.9793 145.04 59.9114 145.068 59.8614 145.118C59.8114 145.168 59.7833 145.236 59.7833 145.307V147.173ZM60.3167 145.573H63.5167V146.907H60.3167V145.573ZM61.6956 137.573H61.3833V137.04H61.6956C62.0066 137.042 62.3127 136.962 62.5833 136.809L62.85 137.271C62.4983 137.471 62.1002 137.575 61.6956 137.573Z" fill="white"/>
<rect x="76" y="123" width="34" height="34" rx="17" fill="#080D26"/>
<rect x="76" y="123" width="34" height="34" rx="17" stroke="white" stroke-width="2"/>
<path d="M99.4288 133.057V133.674H99.1193C97.8341 133.676 96.6019 134.227 95.6931 135.206C94.7843 136.185 94.2731 137.512 94.2717 138.897V139.23H93.6988V142.266H94.2717V142.292C94.2629 142.783 94.0754 143.251 93.7497 143.596C93.4239 143.94 92.9858 144.133 92.5296 144.133C92.0733 144.133 91.6352 143.94 91.3094 143.596C90.9837 143.251 90.7962 142.783 90.7874 142.292V135.476H91.361V132.44H86.25V135.476H86.8262V142.292C86.8262 143.922 87.4275 145.486 88.4978 146.639C89.568 147.792 91.0196 148.44 92.5332 148.44C94.0468 148.44 95.4983 147.792 96.5686 146.639C97.6389 145.486 98.2401 143.922 98.2401 142.292V142.266H98.8117V139.23H98.2388V138.897C98.239 138.644 98.332 138.403 98.4975 138.225C98.6629 138.046 98.8873 137.946 99.1213 137.946H99.4308V138.563H102.25V133.057H99.4288ZM86.7768 133.007H90.8341V134.909H86.7768V133.007ZM90.2605 135.476V140.464H87.3531V135.476H90.2605ZM97.71 142.292C97.71 143.772 97.1642 145.191 96.1928 146.238C95.2213 147.284 93.9037 147.872 92.5299 147.872C91.156 147.872 89.8384 147.284 88.867 146.238C87.8955 145.191 87.3498 143.772 87.3498 142.292V141.032H90.2605V142.292C90.2707 142.933 90.5142 143.544 90.9386 143.994C91.363 144.443 91.9344 144.695 92.5296 144.695C93.1247 144.695 93.6961 144.443 94.1205 143.994C94.5449 143.544 94.7884 142.933 94.7986 142.292V142.266H97.71V142.292ZM98.2829 141.699H94.2256V139.798H98.2849L98.2829 141.699ZM99.1193 137.378C98.7456 137.379 98.3874 137.539 98.1231 137.823C97.8589 138.108 97.7103 138.494 97.71 138.897V139.23H94.7986V138.897C94.8 137.663 95.2556 136.479 96.0656 135.607C96.8756 134.734 97.9738 134.243 99.1193 134.242H99.4288V137.376L99.1193 137.378ZM101.721 137.996H99.9556V133.625H101.721V137.996Z" fill="white"/>
<rect x="108" y="123" width="34" height="34" rx="17" fill="#19317C"/>
<rect x="108" y="123" width="34" height="34" rx="17" stroke="white" stroke-width="2"/>
<path d="M118.064 147.44H120.504C120.72 147.44 120.927 147.356 121.08 147.205C121.232 147.055 121.318 146.851 121.318 146.639V138.896C121.317 138.731 121.265 138.57 121.168 138.435C121.07 138.301 120.934 138.199 120.775 138.144V132.241C120.775 132.108 120.742 131.976 120.677 131.859C120.612 131.742 120.519 131.642 120.405 131.569C120.292 131.497 120.161 131.453 120.026 131.442C119.891 131.432 119.755 131.455 119.631 131.509L118.275 132.102C118.132 132.165 118.009 132.268 117.924 132.398C117.838 132.528 117.792 132.68 117.792 132.834V138.144C117.634 138.199 117.497 138.301 117.4 138.435C117.303 138.57 117.251 138.731 117.25 138.896V146.639C117.25 146.851 117.336 147.055 117.488 147.205C117.641 147.356 117.848 147.44 118.064 147.44ZM118.335 132.834C118.335 132.783 118.35 132.732 118.379 132.689C118.407 132.646 118.448 132.611 118.496 132.59L119.852 131.997C119.893 131.979 119.938 131.971 119.983 131.975C120.028 131.979 120.072 131.993 120.11 132.017C120.148 132.042 120.179 132.075 120.2 132.114C120.222 132.153 120.233 132.197 120.233 132.241V135.691H118.335V132.834ZM120.233 136.226V138.095H118.335V136.226H120.233ZM117.792 138.896C117.792 138.825 117.821 138.757 117.872 138.707C117.923 138.657 117.992 138.629 118.064 138.629H120.504C120.576 138.629 120.645 138.657 120.696 138.707C120.747 138.757 120.775 138.825 120.775 138.896V139.163H117.792V138.896ZM120.775 139.697V146.639C120.775 146.71 120.747 146.778 120.696 146.828C120.645 146.878 120.576 146.906 120.504 146.906H118.064C117.992 146.906 117.923 146.878 117.872 146.828C117.821 146.778 117.792 146.71 117.792 146.639V139.697H120.775Z" fill="white"/>
<path d="M122.131 139.964C122.129 140.665 122.269 141.36 122.542 142.009C122.814 142.657 123.215 143.245 123.721 143.74C123.469 143.798 123.239 143.926 123.058 144.108C122.877 144.291 122.753 144.52 122.701 144.77H122.674C122.458 144.77 122.251 144.854 122.098 145.004C121.946 145.155 121.86 145.358 121.86 145.571V146.639C121.86 146.851 121.946 147.055 122.098 147.205C122.251 147.355 122.458 147.44 122.674 147.44H132.436C132.652 147.44 132.859 147.355 133.012 147.205C133.164 147.055 133.25 146.851 133.25 146.639V145.571C133.25 145.358 133.164 145.155 133.012 145.004C132.859 144.854 132.652 144.77 132.436 144.77H132.409C132.357 144.52 132.233 144.291 132.052 144.108C131.871 143.926 131.642 143.798 131.39 143.74C132.02 143.119 132.486 142.354 132.745 141.514C133.004 140.674 133.049 139.783 132.875 138.922C132.701 138.061 132.314 137.255 131.748 136.576C131.182 135.897 130.455 135.366 129.631 135.03C128.807 134.694 127.911 134.563 127.023 134.649C126.136 134.735 125.283 135.035 124.542 135.523C123.8 136.011 123.192 136.672 122.772 137.446C122.351 138.221 122.131 139.085 122.131 139.964ZM132.708 145.571V146.639C132.708 146.71 132.679 146.778 132.628 146.828C132.577 146.878 132.508 146.906 132.436 146.906H122.674C122.602 146.906 122.533 146.878 122.482 146.828C122.431 146.778 122.402 146.71 122.402 146.639V145.571C122.402 145.5 122.431 145.432 122.482 145.382C122.533 145.332 122.602 145.304 122.674 145.304H132.436C132.508 145.304 132.577 145.332 132.628 145.382C132.679 145.432 132.708 145.5 132.708 145.571ZM131.848 144.77H123.262C123.319 144.614 123.423 144.479 123.56 144.383C123.697 144.287 123.861 144.236 124.03 144.236H131.08C131.249 144.236 131.413 144.287 131.55 144.383C131.687 144.479 131.791 144.614 131.848 144.77ZM127.555 135.157C128.564 135.158 129.549 135.466 130.372 136.04C131.196 136.614 131.819 137.426 132.155 138.363C132.491 139.3 132.524 140.316 132.25 141.272C131.975 142.228 131.406 143.077 130.621 143.702H129.651C130.494 143.244 131.158 142.523 131.539 141.653C131.92 140.783 131.997 139.813 131.757 138.896C131.517 137.978 130.974 137.165 130.213 136.584C129.452 136.004 128.517 135.689 127.555 135.689C126.593 135.689 125.658 136.004 124.897 136.584C124.136 137.165 123.593 137.978 123.353 138.896C123.113 139.813 123.19 140.783 123.571 141.653C123.952 142.523 124.616 143.244 125.459 143.702H124.491C123.706 143.077 123.137 142.229 122.862 141.273C122.587 140.317 122.62 139.3 122.956 138.363C123.292 137.426 123.915 136.615 124.738 136.041C125.562 135.467 126.546 135.158 127.555 135.157ZM127.555 143.702C126.804 143.702 126.07 143.482 125.446 143.072C124.821 142.661 124.335 142.077 124.047 141.394C123.76 140.711 123.685 139.959 123.831 139.234C123.978 138.509 124.339 137.843 124.87 137.32C125.401 136.798 126.078 136.442 126.814 136.297C127.551 136.153 128.314 136.227 129.008 136.51C129.702 136.793 130.295 137.272 130.712 137.887C131.129 138.502 131.352 139.224 131.352 139.964C131.351 140.955 130.95 141.905 130.238 142.606C129.527 143.306 128.562 143.701 127.555 143.702Z" fill="white"/>
<path d="M122.132 134.623H121.589V135.157H122.132V134.623Z" fill="white"/>
<path d="M122.674 135.158H122.131V135.692H122.674V135.158Z" fill="white"/>
<path d="M123.216 134.623H122.674V135.157H123.216V134.623Z" fill="white"/>
<path d="M122.674 134.089H122.131V134.623H122.674V134.089Z" fill="white"/>
<path d="M123.759 132.487H123.216V133.021H123.759V132.487Z" fill="white"/>
<path d="M124.301 133.021H123.759V133.555H124.301V133.021Z" fill="white"/>
<path d="M124.843 132.487H124.301V133.021H124.843V132.487Z" fill="white"/>
<path d="M124.301 131.953H123.758V132.487H124.301V131.953Z" fill="white"/>
<rect x="140" y="123" width="34" height="34" rx="17" fill="#3E51E5"/>
<rect x="140" y="123" width="34" height="34" rx="17" stroke="white" stroke-width="2"/>
<path d="M165.239 146.942C165.21 146.785 165.126 146.649 165.003 146.56C164.74 146.369 164.522 146.176 164.352 145.985C164.552 145.765 164.705 145.497 164.798 145.199C164.96 144.679 164.926 144.121 164.702 143.629C164.38 142.921 163.731 142.482 163.008 142.482C162.779 142.482 162.554 142.526 162.338 142.615C162.278 142.639 162.22 142.667 162.165 142.696C162.05 142.758 161.942 142.832 161.841 142.917L159.673 139.504L159.627 139.061C159.626 139.052 159.625 139.043 159.623 139.035L158.268 132.932C158.219 132.646 157.992 132.44 157.724 132.44C157.692 132.44 157.66 132.443 157.629 132.449C157.33 132.505 157.128 132.813 157.176 133.138L157.491 136.07L155.947 133.64C155.845 133.463 155.669 133.358 155.477 133.358C155.375 133.358 155.275 133.388 155.188 133.446C155.061 133.53 154.973 133.662 154.938 133.818C154.904 133.972 154.926 134.131 155 134.266L157.688 139.825C157.692 139.833 157.697 139.841 157.701 139.848L157.936 140.214L158.379 144.331C158.251 144.339 158.125 144.361 158.002 144.397C157.941 144.415 157.88 144.436 157.821 144.46C156.907 144.833 156.408 145.889 156.66 146.914C156.791 147.445 157.104 147.888 157.542 148.163C157.83 148.344 158.157 148.44 158.487 148.44C158.509 148.44 158.53 148.44 158.552 148.439C158.554 148.439 158.555 148.439 158.556 148.439C158.603 148.439 158.793 148.416 158.986 148.361C159.099 148.329 159.189 148.293 159.245 148.268C159.278 148.253 159.313 148.238 159.345 148.217L159.346 148.218C160.137 147.786 160.54 146.834 160.33 145.898L160.091 143.569L161.325 145.491C161.653 146.174 162.294 146.597 163 146.597C163.115 146.597 163.231 146.585 163.345 146.562C163.599 146.907 163.949 147.242 164.388 147.56C164.479 147.626 164.585 147.662 164.695 147.662C164.881 147.662 165.053 147.562 165.157 147.394C165.239 147.26 165.268 147.1 165.239 146.942ZM159.06 148.009C159.061 147.996 159.063 147.983 159.066 147.971C159.063 147.984 159.061 147.996 159.06 148.009ZM159.114 147.879C159.126 147.864 159.14 147.852 159.154 147.843C159.139 147.853 159.126 147.865 159.114 147.879ZM164.828 147.156C164.798 147.204 164.749 147.233 164.695 147.233C164.664 147.233 164.633 147.223 164.607 147.204C164.159 146.88 163.815 146.541 163.585 146.197C163.537 146.126 163.454 146.094 163.375 146.116C163.252 146.151 163.126 146.168 163 146.168C162.438 146.168 161.929 145.829 161.67 145.282C161.666 145.274 161.662 145.266 161.657 145.258L159.971 142.632C159.919 142.551 159.823 142.519 159.739 142.553C159.654 142.588 159.602 142.68 159.612 142.778L159.939 145.959C159.94 145.969 159.942 145.978 159.944 145.988C160.116 146.732 159.797 147.491 159.168 147.834C159.164 147.836 159.161 147.839 159.157 147.841C159.141 147.85 159.041 147.902 158.886 147.946C158.734 147.989 158.59 148.006 158.557 148.009C158.553 148.009 158.55 148.009 158.546 148.009C158.266 148.021 157.985 147.946 157.74 147.792C157.393 147.574 157.145 147.223 157.042 146.803C156.842 145.991 157.237 145.156 157.961 144.861C158.008 144.841 158.055 144.825 158.103 144.811C158.228 144.775 158.358 144.756 158.488 144.756C158.52 144.756 158.554 144.757 158.587 144.76C158.646 144.764 158.703 144.74 158.744 144.694C158.784 144.647 158.803 144.584 158.797 144.521L158.323 140.111C158.319 140.075 158.307 140.042 158.289 140.013L158.033 139.614L155.348 134.062C155.346 134.058 155.344 134.053 155.341 134.05C155.319 134.01 155.312 133.964 155.322 133.919C155.332 133.874 155.358 133.836 155.394 133.812C155.419 133.795 155.448 133.786 155.477 133.786C155.533 133.786 155.584 133.817 155.613 133.869C155.615 133.872 155.617 133.876 155.619 133.879L157.617 137.023C157.668 137.104 157.764 137.137 157.849 137.102C157.934 137.067 157.986 136.974 157.975 136.877L157.568 133.083C157.567 133.079 157.567 133.075 157.566 133.071C157.551 132.977 157.61 132.887 157.696 132.871C157.783 132.855 157.865 132.919 157.88 133.012C157.881 133.017 157.882 133.021 157.883 133.026L159.236 139.122L159.286 139.605C159.29 139.641 159.301 139.674 159.32 139.703L161.642 143.359C161.675 143.411 161.728 143.445 161.787 143.45C161.845 143.456 161.903 143.433 161.944 143.389C162.061 143.263 162.194 143.159 162.34 143.08C162.384 143.057 162.43 143.035 162.477 143.015C162.649 142.946 162.827 142.91 163.008 142.91C163.579 142.91 164.093 143.258 164.348 143.819C164.525 144.208 164.552 144.65 164.424 145.061C164.332 145.354 164.168 145.61 163.949 145.802C163.908 145.838 163.882 145.891 163.877 145.947C163.872 146.004 163.887 146.061 163.921 146.105C164.128 146.379 164.419 146.652 164.784 146.916C164.819 146.942 164.843 146.981 164.852 147.026C164.86 147.072 164.852 147.118 164.828 147.156Z" fill="white"/>
<path d="M158.49 145.315C158.405 145.315 158.319 145.327 158.236 145.351C158.204 145.361 158.172 145.372 158.142 145.384C157.668 145.578 157.408 146.126 157.54 146.659C157.608 146.935 157.77 147.165 157.998 147.308C158.148 147.402 158.317 147.452 158.489 147.452C158.575 147.452 158.661 147.44 158.745 147.415C158.778 147.405 158.809 147.395 158.838 147.383C159.313 147.188 159.572 146.64 159.441 146.107C159.326 145.641 158.935 145.315 158.49 145.315ZM158.698 146.981C158.681 146.988 158.662 146.995 158.642 147.001C158.492 147.045 158.33 147.021 158.195 146.937C158.059 146.851 157.962 146.713 157.921 146.548C157.843 146.229 157.998 145.901 158.282 145.785C158.3 145.778 158.319 145.771 158.338 145.765C158.388 145.751 158.439 145.744 158.49 145.744C158.756 145.744 158.99 145.939 159.059 146.218C159.138 146.537 158.983 146.865 158.698 146.981Z" fill="white"/>
<path d="M159.133 139.733C159.082 139.585 158.95 139.486 158.804 139.486C158.765 139.486 158.725 139.493 158.688 139.507C158.685 139.508 158.682 139.51 158.679 139.511C158.503 139.587 158.414 139.807 158.481 139.999C158.532 140.147 158.664 140.246 158.81 140.246C158.85 140.246 158.889 140.239 158.927 140.224C158.93 140.223 158.932 140.222 158.935 140.221C159.111 140.144 159.199 139.925 159.133 139.733Z" fill="white"/>
<path d="M163.886 144.066C163.719 143.699 163.382 143.47 163.006 143.47C162.888 143.47 162.771 143.493 162.659 143.539C162.627 143.552 162.597 143.566 162.568 143.582C162.082 143.843 161.882 144.484 162.122 145.012C162.289 145.38 162.626 145.608 163.002 145.608C163.121 145.608 163.237 145.585 163.349 145.54C163.38 145.527 163.41 145.513 163.44 145.497C163.675 145.37 163.852 145.152 163.936 144.882C164.02 144.612 164.002 144.322 163.886 144.066ZM163.562 144.744C163.511 144.906 163.406 145.037 163.265 145.113C163.247 145.122 163.229 145.131 163.21 145.138C163.143 145.166 163.073 145.18 163.002 145.18C162.778 145.18 162.576 145.043 162.476 144.822C162.332 144.507 162.452 144.122 162.744 143.966C162.761 143.957 162.779 143.948 162.798 143.941C162.865 143.913 162.935 143.899 163.006 143.899C163.23 143.899 163.432 144.036 163.532 144.256C163.602 144.409 163.612 144.583 163.562 144.744Z" fill="white"/>
<path d="M153.718 133.285C153.827 133.285 153.915 133.189 153.915 133.07C153.915 132.952 153.827 132.856 153.718 132.856H149.981C149.578 132.856 149.25 133.212 149.25 133.65V147.642C149.25 148.079 149.578 148.435 149.981 148.435H150.113C150.514 148.435 150.839 148.082 150.839 147.647V140.277H153.718C153.827 140.277 153.915 140.181 153.915 140.063C153.915 139.945 153.827 139.849 153.718 139.849H150.839V139.112H153.718C153.827 139.112 153.915 139.016 153.915 138.898C153.915 138.779 153.827 138.683 153.718 138.683H150.839V137.947H153.718C153.827 137.947 153.915 137.851 153.915 137.732C153.915 137.614 153.827 137.518 153.718 137.518H150.839V136.781H153.718C153.827 136.781 153.915 136.685 153.915 136.567C153.915 136.449 153.827 136.353 153.718 136.353H150.839V135.616H153.718C153.827 135.616 153.915 135.52 153.915 135.402C153.915 135.284 153.827 135.187 153.718 135.187H150.839V134.451H153.718C153.827 134.451 153.915 134.355 153.915 134.236C153.915 134.118 153.827 134.022 153.718 134.022H150.839V133.285H153.718V133.285ZM150.444 147.648C150.444 147.846 150.296 148.007 150.113 148.007H149.981C149.796 148.007 149.645 147.843 149.645 147.642V133.65C149.645 133.449 149.796 133.285 149.981 133.285H150.444V147.648H150.444Z" fill="white"/>
<rect x="72" y="20" width="46" height="46" rx="23" fill="#F1F3FF"/>
<path d="M103.85 35.9485C103.647 35.9166 103.433 35.8902 103.207 35.8707C103.306 34.7527 103.048 33.718 102.383 32.8971C100.456 30.5152 95.845 30.8444 92.0871 33.6319C88.3277 36.4194 86.8425 40.611 88.7701 42.9944C88.7918 43.0207 88.8121 43.0457 88.8339 43.0707C89.0268 43.2985 89.2472 43.4985 89.488 43.6749C89.9579 44.018 90.5134 44.2638 91.1255 44.4124C91.491 44.5013 91.8782 44.5555 92.28 44.5777C94.3584 44.6874 96.8603 43.8985 99.0678 42.261C99.0997 42.2374 99.1301 42.2152 99.162 42.1888C99.3868 42.2138 99.6029 42.2513 99.8118 42.3013L99.8553 42.3124C100.344 42.4374 100.772 42.6305 101.13 42.893C101.135 42.8957 101.137 42.8985 101.142 42.9013C100.276 43.9735 99.2157 44.9944 97.9814 45.911C95.0763 48.0666 91.8101 49.1791 89.0036 49.1944C88.6932 49.1957 88.3886 49.1846 88.0913 49.1596C87.8302 49.1374 87.5749 49.1069 87.3269 49.0624C87.0223 49.011 86.7279 48.943 86.4436 48.8596C85.2282 48.5069 84.1927 47.8721 83.4443 46.9471C80.719 43.5819 82.8162 37.6624 88.1246 33.7249C93.4345 29.7888 99.9438 29.3235 102.665 32.6888C103.413 33.6138 103.796 34.7319 103.85 35.9485Z" fill="#1A317C"/>
<path d="M103.031 52.156C97.7213 56.0921 91.212 56.5574 88.4911 53.1921C87.7427 52.2671 87.3584 51.1477 87.3062 49.931C87.5107 49.963 87.721 49.9893 87.9487 50.0088C87.8486 51.1282 88.1082 52.163 88.7725 52.9838C90.7 55.3671 95.3094 55.038 99.0687 52.2491C102.828 49.4616 104.313 45.2699 102.384 42.8866C102.364 42.8616 102.344 42.8366 102.32 42.8116C102.126 42.5838 101.909 42.381 101.666 42.2074C101.196 41.863 100.642 41.6185 100.03 41.4685C99.6648 41.3796 99.2776 41.3255 98.8758 41.3018C96.7974 41.1935 94.297 41.9824 92.091 43.6199C92.0605 43.6435 92.0286 43.6657 91.9981 43.6907C91.7733 43.6671 91.5558 43.6296 91.3469 43.5782C90.8407 43.456 90.3984 43.2574 90.0329 42.9907C90.0271 42.9866 90.0227 42.9838 90.0169 42.9782C90.8842 41.906 91.943 40.8852 93.1773 39.9685C96.0824 37.813 99.3487 36.7005 102.155 36.6852C102.466 36.6838 102.77 36.6949 103.067 36.7199C103.329 36.7421 103.584 36.7727 103.832 36.8171C104.136 36.8685 104.432 36.9352 104.717 37.0199C105.932 37.3727 106.968 38.0074 107.714 38.9324C110.435 42.2977 108.34 48.2171 103.031 52.1532V52.156Z" fill="#212121"/>
<path fill-rule="evenodd" clip-rule="evenodd" d="M105.817 55.7927C105.829 56.3723 105.513 57.1558 105.103 57.5651C104.915 57.7536 104.765 57.9774 104.663 58.2238C104.561 58.4701 104.508 58.7341 104.508 59.0008C104.508 59.2674 104.561 59.5314 104.663 59.7778C104.765 60.0241 104.915 60.2479 105.103 60.4364C105.508 60.8396 105.806 61.5391 105.817 62.1103C105.828 62.6158 106.026 63.1183 106.411 63.5032C106.767 63.8598 107.243 64.0708 107.746 64.095C108.35 64.1255 109.141 64.4768 109.569 64.9045C109.757 65.0929 109.981 65.2424 110.227 65.3444C110.474 65.4464 110.738 65.4989 111.004 65.4989C111.271 65.4989 111.535 65.4464 111.781 65.3444C112.027 65.2424 112.251 65.0929 112.439 64.9045C112.867 64.4768 113.658 64.1255 114.262 64.095C114.765 64.0708 115.241 63.8598 115.597 63.5032C115.968 63.1328 116.181 62.6328 116.19 62.1088C116.202 61.5391 116.496 60.8442 116.9 60.441C117.282 60.0602 117.497 59.5433 117.498 59.004C117.499 58.4646 117.285 57.9471 116.904 57.5651C116.495 57.1566 116.179 56.3723 116.191 55.7935C116.197 55.5202 116.147 55.2486 116.045 54.995C115.943 54.7414 115.791 54.5112 115.597 54.3181C115.396 54.1171 115.156 53.9605 114.891 53.8585C114.626 53.7565 114.342 53.7115 114.058 53.7263C113.513 53.7538 112.825 53.4896 112.439 53.1032C112.251 52.9146 112.027 52.765 111.781 52.6629C111.535 52.5608 111.27 52.5083 111.004 52.5083C110.737 52.5083 110.473 52.5608 110.227 52.6629C109.98 52.765 109.757 52.9146 109.568 53.1032C109.183 53.4888 108.494 53.7538 107.949 53.7263C107.666 53.7116 107.382 53.7567 107.117 53.8587C106.852 53.9606 106.612 54.1172 106.411 54.3181C106.218 54.5111 106.065 54.7412 105.963 54.9946C105.861 55.2481 105.812 55.5195 105.817 55.7927ZM113.322 56.4235C113.41 56.4721 113.487 56.5376 113.55 56.6162C113.612 56.6947 113.658 56.7848 113.686 56.8812C113.713 56.9777 113.722 57.0786 113.71 57.1782C113.699 57.2779 113.668 57.3743 113.619 57.462L111.506 61.2665C111.45 61.3698 111.373 61.4593 111.278 61.5284C111.14 61.6281 110.973 61.6789 110.802 61.6726C110.632 61.6664 110.469 61.6036 110.339 61.4941L108.232 59.8087C108.153 59.746 108.088 59.6685 108.04 59.5806C107.992 59.4928 107.961 59.3962 107.95 59.2965C107.939 59.1968 107.947 59.0959 107.975 58.9996C108.003 58.9032 108.05 58.8133 108.113 58.735C108.175 58.6567 108.253 58.5915 108.341 58.5431C108.429 58.4947 108.525 58.4641 108.625 58.4531C108.725 58.442 108.825 58.4507 108.922 58.4786C109.018 58.5066 109.108 58.5532 109.186 58.6159L110.601 59.7484L112.284 56.7198C112.332 56.6321 112.398 56.5549 112.477 56.4926C112.555 56.4303 112.645 56.384 112.742 56.3565C112.838 56.329 112.939 56.3208 113.039 56.3322C113.138 56.3437 113.235 56.3747 113.322 56.4235Z" fill="#3E51E5"/>
</svg>
