<svg width="60" height="60" viewBox="0 0 60 60" fill="none" xmlns="http://www.w3.org/2000/svg">
<g>
<rect width="60" height="60" rx="10" fill="white" fill-opacity="0.3"/>
<rect x="0.5" y="0.5" width="59" height="59" rx="9.5" stroke="#212121" stroke-opacity="0.1"/>
<path d="M22.5 22.5L26.913 25.1091C29.4858 26.6303 30.5142 26.6303 33.087 25.1091L37.5 22.5" stroke="#001A6D" stroke-width="1.5" stroke-linecap="round" stroke-linejoin="round"/>
<path d="M25.6537 15.055L25.6726 15.8047L25.6537 15.055ZM15.0237 25.5593L15.7735 25.5752L15.0237 25.5593ZM34.3617 15.055L34.3806 14.3052L34.3617 15.055ZM44.9918 25.5593L45.7416 25.5433L44.9918 25.5593ZM25.6349 41.2498C26.0489 41.2602 26.3931 40.933 26.4035 40.5189C26.4139 40.1048 26.0867 39.7607 25.6726 39.7502L25.6537 40.5L25.6349 41.2498ZM15.0237 29.9957L15.7735 29.9797L15.0237 29.9957ZM44.2419 27.7672C44.2362 28.1814 44.5673 28.5217 44.9815 28.5274C45.3957 28.5331 45.736 28.2019 45.7417 27.7878L44.9918 27.7775L44.2419 27.7672ZM25.6537 15.055L25.6726 15.8047C28.5722 15.7318 31.4432 15.7318 34.3429 15.8047L34.3617 15.055L34.3806 14.3052C31.4558 14.2316 28.5596 14.2316 25.6348 14.3052L25.6537 15.055ZM15.0237 25.5593L14.2738 25.5433C14.2421 27.0357 14.2421 28.5193 14.2738 30.0116L15.0237 29.9957L15.7735 29.9797C15.7422 28.5086 15.7422 27.0463 15.7735 25.5752L15.0237 25.5593ZM25.6537 15.055L25.6348 14.3052C23.2947 14.3641 21.4577 14.4084 19.9968 14.6632C18.5021 14.924 17.3266 15.4158 16.3366 16.4113L16.8684 16.9401L17.4002 17.469C18.1077 16.7576 18.9623 16.3664 20.2546 16.1409C21.5807 15.9096 23.2875 15.8647 25.6726 15.8047L25.6537 15.055ZM15.0237 25.5593L15.7735 25.5752C15.823 23.2484 15.8604 21.5866 16.0852 20.2898C16.3038 19.0287 16.6895 18.1835 17.4002 17.469L16.8684 16.9401L16.3366 16.4113C15.3497 17.4036 14.8621 18.5639 14.6073 20.0336C14.3586 21.4676 14.3224 23.2619 14.2738 25.5433L15.0237 25.5593ZM34.3617 15.055L34.3429 15.8047C36.7279 15.8648 38.4348 15.9096 39.7609 16.1409C41.0531 16.3664 41.9077 16.7577 42.6153 17.4691L43.1471 16.9402L43.6788 16.4113C42.6888 15.4159 41.5133 14.924 40.0186 14.6633C38.5578 14.4084 36.7207 14.3641 34.3806 14.3052L34.3617 15.055ZM44.9918 25.5593L45.7416 25.5433C45.693 23.2619 45.6568 21.4677 45.4082 20.0336C45.1534 18.5639 44.6658 17.4036 43.6788 16.4113L43.1471 16.9402L42.6153 17.4691C43.3259 18.1835 43.7116 19.0287 43.9302 20.2898C44.1551 21.5866 44.1924 23.2484 44.242 25.5753L44.9918 25.5593ZM25.6537 40.5L25.6726 39.7502C23.2876 39.6902 21.5807 39.6454 20.2546 39.414C18.9623 39.1886 18.1077 38.7973 17.4002 38.0859L16.8684 38.6148L16.3366 39.1437C17.3266 40.1391 18.5021 40.631 19.9968 40.8917C21.4577 41.1465 23.2947 41.1909 25.6349 41.2498L25.6537 40.5ZM15.0237 29.9957L14.2738 30.0116C14.3224 32.293 14.3586 34.0873 14.6073 35.5214C14.8621 36.9911 15.3497 38.1514 16.3366 39.1437L16.8684 38.6148L17.4002 38.0859C16.6896 37.3714 16.3039 36.5263 16.0852 35.2652C15.8604 33.9684 15.823 32.3065 15.7735 29.9797L15.0237 29.9957ZM44.9918 27.7775C45.7417 27.7878 45.7417 27.7877 45.7417 27.7877C45.7417 27.7877 45.7417 27.7877 45.7417 27.7877C45.7417 27.7876 45.7417 27.7875 45.7417 27.7874C45.7417 27.7873 45.7417 27.787 45.7417 27.7866C45.7417 27.7859 45.7417 27.7849 45.7418 27.7836C45.7418 27.7809 45.7419 27.777 45.7419 27.7718C45.7421 27.7615 45.7422 27.7464 45.7425 27.7269C45.743 27.6879 45.7436 27.6313 45.7443 27.5608C45.7458 27.4197 45.7475 27.2226 45.7487 26.998C45.751 26.5508 45.7511 25.988 45.7416 25.5433L44.9918 25.5593L44.242 25.5753C44.251 25.9992 44.251 26.5455 44.2487 26.9902C44.2476 27.2117 44.2459 27.4062 44.2444 27.5453C44.2437 27.6148 44.2431 27.6705 44.2426 27.7087C44.2424 27.7278 44.2422 27.7425 44.242 27.7524C44.242 27.7573 44.2419 27.7611 44.2419 27.7636C44.2419 27.7648 44.2419 27.7657 44.2419 27.7664C44.2419 27.7667 44.2419 27.7669 44.2419 27.767C44.2419 27.7671 44.2419 27.7671 44.2419 27.7672C44.2419 27.7672 44.2419 27.7672 44.2419 27.7672C44.2419 27.7672 44.2419 27.7672 44.9918 27.7775Z" fill="#001A6D"/>
<path d="M34.5 38.25C34.5 38.25 35.25 38.25 36 39.75C36 39.75 38.3824 36 40.5 35.25" stroke="#001A6D" stroke-width="1.5" stroke-linecap="round" stroke-linejoin="round"/>
<path d="M45 37.5C45 41.6421 41.6421 45 37.5 45C33.3579 45 30 41.6421 30 37.5C30 33.3579 33.3579 30 37.5 30C41.6421 30 45 33.3579 45 37.5Z" stroke="#001A6D" stroke-width="1.5" stroke-linecap="round"/>
</g>
</svg>
